<svg xmlns="http://www.w3.org/2000/svg" width="1600" height="900" viewBox="0 0 1600 900" role="img" aria-labelledby="title desc">
<title id="title">Flow matching overview schematic</title>
<desc id="desc">A deterministic schematic showing source samples, target samples, straight interpolation times, velocity target arrows, a learned vector field, and one ODE sampling trajectory.</desc>

<defs>
  <marker id="arrow-velocity" markerWidth="11" markerHeight="11" refX="8" refY="3.5" orient="auto">
    <path d="M0,0 L8,3.5 L0,7 Z" fill="#0f766e"/>
  </marker>
  <marker id="arrow-field" markerWidth="8" markerHeight="8" refX="6" refY="3" orient="auto">
    <path d="M0,0 L6,3 L0,6 Z" fill="#64748b"/>
  </marker>
  <marker id="arrow-sample" markerWidth="12" markerHeight="12" refX="9" refY="4" orient="auto">
    <path d="M0,0 L9,4 L0,8 Z" fill="#111827"/>
  </marker>
  <filter id="soft-shadow" x="-20%" y="-20%" width="140%" height="140%">
    <feDropShadow dx="0" dy="8" stdDeviation="10" flood-color="#0f172a" flood-opacity="0.10"/>
  </filter>
</defs>
<style>
  .bg { fill: #f8fafc; }
  .plot { fill: #ffffff; stroke: #d7dee8; stroke-width: 2; }
  .grid { stroke: #e8edf3; stroke-width: 1; }
  .axis { stroke: #b7c1cf; stroke-width: 1.4; }
  .title { fill: #0f172a; font-family: Inter, Arial, sans-serif; font-size: 34px; font-weight: 760; }
  .subtitle { fill: #475569; font-family: Inter, Arial, sans-serif; font-size: 18px; }
  .section { fill: #0f172a; font-family: Inter, Arial, sans-serif; font-size: 20px; font-weight: 720; }
  .label { fill: #334155; font-family: Inter, Arial, sans-serif; font-size: 16px; font-weight: 650; }
  .small { fill: #475569; font-family: Inter, Arial, sans-serif; font-size: 13px; font-weight: 600; }
  .source { fill: #2563eb; fill-opacity: 0.78; stroke: #1e40af; stroke-width: 1; }
  .target { fill: #dc5a3d; fill-opacity: 0.78; stroke: #9f2d20; stroke-width: 1; }
  .midpoint { fill: #f2b705; stroke: #8a5c00; stroke-width: 1.5; }
  .path-line { stroke: #0f766e; stroke-width: 4; stroke-linecap: round; fill: none; }
  .path-faint { stroke: #0f766e; stroke-width: 1.4; stroke-opacity: 0.28; fill: none; }
  .velocity { stroke: #0f766e; stroke-width: 4; stroke-linecap: round; fill: none; }
  .field { stroke: #64748b; stroke-width: 2.2; stroke-linecap: round; fill: none; opacity: 0.58; }
  .sample { stroke: #111827; stroke-width: 5; stroke-linecap: round; stroke-linejoin: round; fill: none; }
  .step { fill: #ffffff; stroke: #111827; stroke-width: 2; }
  .callout { fill: #ffffff; stroke: #d7dee8; stroke-width: 1.5; filter: url(#soft-shadow); }
</style>

<rect class="bg" width="1600" height="900"/>
<rect class="plot" x="115" y="120" width="1370" height="665" rx="18"/>
<text class="title" x="115.0" y="72.0" text-anchor="start">Flow matching objects in one pass</text>
<text class="subtitle" x="115.0" y="104.0" text-anchor="start">Training uses paired endpoints and velocity targets; sampling integrates the learned field from fresh noise.</text>
<line class="grid" x1="313.8" y1="155.0" x2="313.8" y2="750.0" />
<line class="grid" x1="477.5" y1="155.0" x2="477.5" y2="750.0" />
<line class="grid" x1="641.2" y1="155.0" x2="641.2" y2="750.0" />
<line class="grid" x1="805.0" y1="155.0" x2="805.0" y2="750.0" />
<line class="grid" x1="968.8" y1="155.0" x2="968.8" y2="750.0" />
<line class="grid" x1="1132.5" y1="155.0" x2="1132.5" y2="750.0" />
<line class="grid" x1="1296.2" y1="155.0" x2="1296.2" y2="750.0" />
<line class="grid" x1="150.0" y1="690.5" x2="1460.0" y2="690.5" />
<line class="grid" x1="150.0" y1="571.5" x2="1460.0" y2="571.5" />
<line class="grid" x1="150.0" y1="452.5" x2="1460.0" y2="452.5" />
<line class="grid" x1="150.0" y1="333.5" x2="1460.0" y2="333.5" />
<line class="grid" x1="150.0" y1="214.5" x2="1460.0" y2="214.5" />
<line class="axis" x1="150.0" y1="452.5" x2="1460.0" y2="452.5" />
<line class="axis" x1="805.0" y1="155.0" x2="805.0" y2="750.0" />
<text class="section" x="190.0" y="835.0" text-anchor="start">1. sample endpoints</text>
<text class="section" x="510.0" y="835.0" text-anchor="start">2. interpolate path</text>
<text class="section" x="870.0" y="835.0" text-anchor="start">3. regress velocity</text>
<text class="section" x="1190.0" y="835.0" text-anchor="start">4. integrate ODE</text>
<line class="path-faint" x1="280.8" y1="465.7" x2="1304.4" y2="551.7" />
<line class="path-faint" x1="397.8" y1="404.9" x2="1212.5" y2="323.3" />
<line class="path-faint" x1="277.3" y1="362.7" x2="1220.0" y2="578.7" />
<line class="path-faint" x1="394.9" y1="657.7" x2="1208.5" y2="347.3" />
<line class="path-faint" x1="286.4" y1="424.9" x2="1259.6" y2="570.4" />
<line class="path-faint" x1="348.3" y1="547.4" x2="1275.2" y2="384.3" />
<circle class="source" cx="306.5" cy="587.2" r="5.0" />
<circle class="source" cx="280.8" cy="465.7" r="5.0" />
<circle class="source" cx="189.2" cy="272.3" r="5.0" />
<circle class="source" cx="346.1" cy="405.4" r="5.0" />
<circle class="source" cx="351.3" cy="386.1" r="5.0" />
<circle class="source" cx="331.7" cy="392.7" r="5.0" />
<circle class="source" cx="397.8" cy="404.9" r="5.0" />
<circle class="source" cx="324.5" cy="349.4" r="5.0" />
<circle class="source" cx="361.8" cy="421.2" r="5.0" />
<circle class="source" cx="377.5" cy="350.1" r="5.0" />
<circle class="source" cx="277.3" cy="362.7" r="5.0" />
<circle class="source" cx="375.8" cy="536.3" r="5.0" />
<circle class="source" cx="436.2" cy="371.7" r="5.0" />
<circle class="source" cx="356.9" cy="538.5" r="5.0" />
<circle class="source" cx="326.1" cy="513.1" r="5.0" />
<circle class="source" cx="456.1" cy="535.2" r="5.0" />
<circle class="source" cx="394.9" cy="657.7" r="5.0" />
<circle class="source" cx="363.1" cy="345.6" r="5.0" />
<circle class="source" cx="341.6" cy="605.5" r="5.0" />
<circle class="source" cx="328.5" cy="422.7" r="5.0" />
<circle class="source" cx="334.2" cy="481.2" r="5.0" />
<circle class="source" cx="352.7" cy="462.2" r="5.0" />
<circle class="source" cx="286.4" cy="424.9" r="5.0" />
<circle class="source" cx="406.6" cy="385.5" r="5.0" />
<circle class="source" cx="295.0" cy="452.5" r="5.0" />
<circle class="source" cx="453.9" cy="556.7" r="5.0" />
<circle class="source" cx="390.7" cy="493.3" r="5.0" />
<circle class="source" cx="414.4" cy="439.0" r="5.0" />
<circle class="source" cx="428.2" cy="364.8" r="5.0" />
<circle class="source" cx="352.0" cy="407.7" r="5.0" />
<circle class="source" cx="341.4" cy="367.4" r="5.0" />
<circle class="source" cx="348.3" cy="547.4" r="5.0" />
<circle class="source" cx="325.1" cy="330.2" r="5.0" />
<circle class="source" cx="395.6" cy="436.0" r="5.0" />
<circle class="source" cx="314.9" cy="584.7" r="5.0" />
<circle class="source" cx="373.2" cy="433.6" r="5.0" />
<circle class="source" cx="263.8" cy="457.1" r="5.0" />
<circle class="source" cx="421.0" cy="443.2" r="5.0" />
<circle class="source" cx="350.6" cy="416.8" r="5.0" />
<circle class="source" cx="379.0" cy="390.7" r="5.0" />
<circle class="source" cx="325.0" cy="443.9" r="5.0" />
<circle class="source" cx="261.7" cy="573.3" r="5.0" />
<circle class="source" cx="345.3" cy="481.9" r="5.0" />
<circle class="source" cx="302.2" cy="550.1" r="5.0" />
<circle class="source" cx="415.9" cy="447.8" r="5.0" />
<circle class="source" cx="267.1" cy="624.2" r="5.0" />
<circle class="source" cx="427.6" cy="500.5" r="5.0" />
<circle class="source" cx="221.6" cy="567.0" r="5.0" />
<circle class="source" cx="372.9" cy="353.4" r="5.0" />
<circle class="source" cx="454.2" cy="396.7" r="5.0" />
<circle class="source" cx="330.3" cy="500.9" r="5.0" />
<circle class="source" cx="379.4" cy="353.9" r="5.0" />
<circle class="source" cx="355.0" cy="498.8" r="5.0" />
<circle class="source" cx="321.5" cy="360.5" r="5.0" />
<circle class="target" cx="1216.6" cy="268.4" r="5.0" />
<circle class="target" cx="1214.8" cy="647.2" r="5.0" />
<circle class="target" cx="1183.4" cy="361.0" r="5.0" />
<circle class="target" cx="1220.0" cy="539.5" r="5.0" />
<circle class="target" cx="1180.4" cy="313.5" r="5.0" />
<circle class="target" cx="1304.4" cy="551.7" r="5.0" />
<circle class="target" cx="1248.2" cy="301.5" r="5.0" />
<circle class="target" cx="1275.2" cy="589.1" r="5.0" />
<circle class="target" cx="1244.1" cy="343.9" r="5.0" />
<circle class="target" cx="1191.6" cy="567.9" r="5.0" />
<circle class="target" cx="1204.9" cy="303.1" r="5.0" />
<circle class="target" cx="1156.7" cy="554.6" r="5.0" />
<circle class="target" cx="1240.5" cy="329.9" r="5.0" />
<circle class="target" cx="1205.9" cy="605.6" r="5.0" />
<circle class="target" cx="1212.5" cy="323.3" r="5.0" />
<circle class="target" cx="1207.6" cy="554.1" r="5.0" />
<circle class="target" cx="1185.7" cy="299.1" r="5.0" />
<circle class="target" cx="1207.7" cy="555.4" r="5.0" />
<circle class="target" cx="1205.5" cy="249.9" r="5.0" />
<circle class="target" cx="1145.2" cy="523.7" r="5.0" />
<circle class="target" cx="1253.1" cy="291.2" r="5.0" />
<circle class="target" cx="1170.1" cy="589.6" r="5.0" />
<circle class="target" cx="1139.6" cy="332.8" r="5.0" />
<circle class="target" cx="1220.0" cy="578.7" r="5.0" />
<circle class="target" cx="1199.4" cy="363.4" r="5.0" />
<circle class="target" cx="1232.7" cy="525.7" r="5.0" />
<circle class="target" cx="1239.5" cy="347.3" r="5.0" />
<circle class="target" cx="1250.9" cy="554.1" r="5.0" />
<circle class="target" cx="1185.0" cy="344.1" r="5.0" />
<circle class="target" cx="1271.0" cy="559.6" r="5.0" />
<circle class="target" cx="1171.1" cy="338.5" r="5.0" />
<circle class="target" cx="1187.2" cy="532.4" r="5.0" />
<circle class="target" cx="1208.5" cy="347.3" r="5.0" />
<circle class="target" cx="1177.6" cy="518.2" r="5.0" />
<circle class="target" cx="1230.6" cy="297.0" r="5.0" />
<circle class="target" cx="1212.7" cy="536.8" r="5.0" />
<circle class="target" cx="1228.4" cy="341.6" r="5.0" />
<circle class="target" cx="1236.2" cy="563.8" r="5.0" />
<circle class="target" cx="1257.5" cy="302.9" r="5.0" />
<circle class="target" cx="1132.2" cy="568.9" r="5.0" />
<circle class="target" cx="1174.7" cy="317.4" r="5.0" />
<circle class="target" cx="1259.6" cy="570.4" r="5.0" />
<circle class="target" cx="1211.4" cy="307.7" r="5.0" />
<circle class="target" cx="1240.8" cy="603.9" r="5.0" />
<circle class="target" cx="1255.7" cy="300.9" r="5.0" />
<circle class="target" cx="1245.4" cy="558.0" r="5.0" />
<circle class="target" cx="1209.1" cy="335.2" r="5.0" />
<circle class="target" cx="1232.6" cy="605.8" r="5.0" />
<circle class="target" cx="1278.9" cy="310.7" r="5.0" />
<circle class="target" cx="1295.8" cy="585.6" r="5.0" />
<circle class="target" cx="1275.2" cy="384.3" r="5.0" />
<circle class="target" cx="1224.4" cy="539.9" r="5.0" />
<circle class="target" cx="1220.3" cy="356.2" r="5.0" />
<circle class="target" cx="1272.8" cy="580.3" r="5.0" />
<circle class="target" cx="1240.7" cy="325.8" r="5.0" />
<circle class="target" cx="1223.6" cy="571.3" r="5.0" />
<circle class="target" cx="1120.7" cy="386.2" r="5.0" />
<circle class="target" cx="1340.6" cy="609.6" r="5.0" />
<circle class="target" cx="1222.7" cy="309.5" r="5.0" />
<circle class="target" cx="1316.2" cy="544.4" r="5.0" />
<circle class="target" cx="1238.2" cy="325.7" r="5.0" />
<circle class="target" cx="1181.3" cy="636.6" r="5.0" />
<circle class="target" cx="1208.1" cy="329.7" r="5.0" />
<circle class="target" cx="1304.7" cy="561.8" r="5.0" />
<line class="path-line" x1="338.3" y1="541.8" x2="1222.6" y2="327.6" />
<circle class="source" cx="338.3" cy="541.8" r="8.0" />
<text class="small" x="338.3" y="566.8" text-anchor="middle">t=0</text>
<circle class="midpoint" cx="780.4" cy="434.6" r="8.0" />
<text class="small" x="780.4" y="416.6" text-anchor="middle">t=0.5</text>
<circle class="target" cx="1222.6" cy="327.6" r="8.0" />
<text class="small" x="1222.6" y="309.6" text-anchor="middle">t=1</text>
<line class="velocity" x1="550.5" y1="490.3" x2="665.5" y2="462.5" marker-end="url(#arrow-velocity)" />
<line class="velocity" x1="762.8" y1="438.9" x2="877.7" y2="411.1" marker-end="url(#arrow-velocity)" />
<line class="velocity" x1="975.0" y1="387.5" x2="1089.9" y2="359.7" marker-end="url(#arrow-velocity)" />
<line class="field" x1="674.0" y1="637.0" x2="729.4" y2="628.7" marker-end="url(#arrow-field)" />
<line class="field" x1="674.0" y1="541.8" x2="729.8" y2="546.7" marker-end="url(#arrow-field)" />
<line class="field" x1="674.0" y1="446.6" x2="727.5" y2="430.1" marker-end="url(#arrow-field)" />
<line class="field" x1="674.0" y1="351.3" x2="729.9" y2="347.9" marker-end="url(#arrow-field)" />
<line class="field" x1="674.0" y1="256.1" x2="729.1" y2="266.3" marker-end="url(#arrow-field)" />
<line class="field" x1="772.2" y1="637.0" x2="827.3" y2="626.9" marker-end="url(#arrow-field)" />
<line class="field" x1="772.2" y1="541.8" x2="827.9" y2="547.8" marker-end="url(#arrow-field)" />
<line class="field" x1="772.2" y1="446.6" x2="824.6" y2="426.8" marker-end="url(#arrow-field)" />
<line class="field" x1="772.2" y1="351.3" x2="828.1" y2="347.1" marker-end="url(#arrow-field)" />
<line class="field" x1="772.2" y1="256.1" x2="826.9" y2="268.5" marker-end="url(#arrow-field)" />
<line class="field" x1="870.5" y1="637.0" x2="925.0" y2="624.3" marker-end="url(#arrow-field)" />
<line class="field" x1="870.5" y1="541.8" x2="926.0" y2="549.5" marker-end="url(#arrow-field)" />
<line class="field" x1="870.5" y1="446.6" x2="920.8" y2="422.0" marker-end="url(#arrow-field)" />
<line class="field" x1="870.5" y1="351.3" x2="926.2" y2="345.9" marker-end="url(#arrow-field)" />
<line class="field" x1="870.5" y1="256.1" x2="924.2" y2="271.9" marker-end="url(#arrow-field)" />
<line class="field" x1="968.8" y1="637.0" x2="1022.0" y2="619.8" marker-end="url(#arrow-field)" />
<line class="field" x1="968.8" y1="541.8" x2="1023.7" y2="552.4" marker-end="url(#arrow-field)" />
<line class="field" x1="968.8" y1="446.6" x2="1014.8" y2="414.8" marker-end="url(#arrow-field)" />
<line class="field" x1="968.8" y1="351.3" x2="1024.2" y2="343.7" marker-end="url(#arrow-field)" />
<line class="field" x1="968.8" y1="256.1" x2="1020.5" y2="277.6" marker-end="url(#arrow-field)" />
<line class="field" x1="1067.0" y1="637.0" x2="1116.6" y2="610.9" marker-end="url(#arrow-field)" />
<line class="field" x1="1067.0" y1="541.8" x2="1120.4" y2="558.6" marker-end="url(#arrow-field)" />
<line class="field" x1="1067.0" y1="446.6" x2="1103.3" y2="403.9" marker-end="url(#arrow-field)" />
<line class="field" x1="1067.0" y1="351.3" x2="1121.5" y2="338.5" marker-end="url(#arrow-field)" />
<line class="field" x1="1067.0" y1="256.1" x2="1112.8" y2="288.4" marker-end="url(#arrow-field)" />
<path class="sample" d="M 354.7 625.0 L 502.1 607.2 L 657.6 565.5 L 788.6 490.6 L 906.5 428.7 L 1017.9 374.0 L 1135.8 343.0 L 1222.6 327.6" marker-end="url(#arrow-sample)"/>
<circle class="step" cx="354.7" cy="625.0" r="5.5" />
<circle class="step" cx="502.1" cy="607.2" r="5.5" />
<circle class="step" cx="657.6" cy="565.5" r="5.5" />
<circle class="step" cx="788.6" cy="490.6" r="5.5" />
<circle class="step" cx="906.5" cy="428.7" r="5.5" />
<circle class="step" cx="1017.9" cy="374.0" r="5.5" />
<circle class="step" cx="1135.8" cy="343.0" r="5.5" />
<rect class="callout" x="148" y="128" width="260" height="76" rx="12"/>
<text class="label" x="166.0" y="158.0" text-anchor="start">source x0 ~ p0</text>
<text class="small" x="166.0" y="184.0" text-anchor="start">easy noise distribution</text>
<rect class="callout" x="1060" y="128" width="300" height="76" rx="12"/>
<text class="label" x="1078.0" y="158.0" text-anchor="start">target x1 ~ p1</text>
<text class="small" x="1078.0" y="184.0" text-anchor="start">observed data samples</text>
<rect class="callout" x="552" y="202" width="260" height="76" rx="12"/>
<text class="label" x="570.0" y="232.0" text-anchor="start">conditional path</text>
<text class="small" x="570.0" y="258.0" text-anchor="start">xt lies between endpoints</text>
<rect class="callout" x="748" y="505" width="290" height="76" rx="12"/>
<text class="label" x="766.0" y="535.0" text-anchor="start">velocity target</text>
<text class="small" x="766.0" y="561.0" text-anchor="start">arrows point along the path</text>
<rect class="callout" x="1010" y="585" width="320" height="76" rx="12"/>
<text class="label" x="1028.0" y="615.0" text-anchor="start">learned field v_theta</text>
<text class="small" x="1028.0" y="641.0" text-anchor="start">local directions used at sampling</text>
<rect class="callout" x="1118" y="690" width="292" height="76" rx="12"/>
<text class="label" x="1136.0" y="720.0" text-anchor="start">ODE trajectory</text>
<text class="small" x="1136.0" y="746.0" text-anchor="start">fresh noise follows the field</text>
</svg>
