<svg xmlns="http://www.w3.org/2000/svg" width="920" height="640" viewBox="0 0 920 640" role="img" aria-label="Conditional endpoint velocity arrows averaged into a marginal direction">
<rect width="100%" height="100%" fill="#fbfbf8"/>
<text x="58" y="38" font-family="Arial, sans-serif" font-size="23" font-weight="700" fill="#222">Conditional arrows near one point average into a marginal direction</text>
<text x="58" y="62" font-family="Arial, sans-serif" font-size="14" fill="#555">Fixed time t = 0.55; arrows come from endpoint pairs whose interpolated point lies near the marked query location.</text>
<circle cx="379.0" cy="482.0" r="2.0" fill="#333333" opacity="0.15"/>
<circle cx="482.8" cy="427.8" r="2.0" fill="#333333" opacity="0.15"/>
<circle cx="214.7" cy="254.5" r="2.0" fill="#333333" opacity="0.15"/>
<circle cx="463.5" cy="276.3" r="2.0" fill="#333333" opacity="0.15"/>
<circle cx="483.2" cy="228.8" r="2.0" fill="#333333" opacity="0.15"/>
<circle cx="349.4" cy="372.6" r="2.0" fill="#333333" opacity="0.15"/>
<circle cx="360.6" cy="214.2" r="2.0" fill="#333333" opacity="0.15"/>
<circle cx="671.3" cy="338.0" r="2.0" fill="#333333" opacity="0.15"/>
<circle cx="414.0" cy="215.6" r="2.0" fill="#333333" opacity="0.15"/>
<circle cx="550.5" cy="263.8" r="2.0" fill="#333333" opacity="0.15"/>
<circle cx="481.4" cy="342.6" r="2.0" fill="#333333" opacity="0.15"/>
<circle cx="427.4" cy="233.5" r="2.0" fill="#333333" opacity="0.15"/>
<circle cx="524.0" cy="381.1" r="2.0" fill="#333333" opacity="0.15"/>
<circle cx="320.9" cy="343.6" r="2.0" fill="#333333" opacity="0.15"/>
<circle cx="260.3" cy="268.0" r="2.0" fill="#333333" opacity="0.15"/>
<circle cx="535.7" cy="341.3" r="2.0" fill="#333333" opacity="0.15"/>
<circle cx="608.7" cy="417.2" r="2.0" fill="#333333" opacity="0.15"/>
<circle cx="525.4" cy="493.5" r="2.0" fill="#333333" opacity="0.15"/>
<circle cx="578.7" cy="89.4" r="2.0" fill="#333333" opacity="0.15"/>
<circle cx="474.8" cy="259.4" r="2.0" fill="#333333" opacity="0.15"/>
<circle cx="492.3" cy="348.8" r="2.0" fill="#333333" opacity="0.15"/>
<circle cx="564.4" cy="285.5" r="2.0" fill="#333333" opacity="0.15"/>
<circle cx="420.0" cy="267.3" r="2.0" fill="#333333" opacity="0.15"/>
<circle cx="616.8" cy="368.0" r="2.0" fill="#333333" opacity="0.15"/>
<circle cx="453.5" cy="251.3" r="2.0" fill="#333333" opacity="0.15"/>
<circle cx="378.1" cy="257.7" r="2.0" fill="#333333" opacity="0.15"/>
<circle cx="444.0" cy="334.7" r="2.0" fill="#333333" opacity="0.15"/>
<circle cx="464.9" cy="292.5" r="2.0" fill="#333333" opacity="0.15"/>
<circle cx="592.2" cy="461.7" r="2.0" fill="#333333" opacity="0.15"/>
<circle cx="682.9" cy="392.8" r="2.0" fill="#333333" opacity="0.15"/>
<circle cx="555.4" cy="281.0" r="2.0" fill="#333333" opacity="0.15"/>
<circle cx="451.5" cy="309.1" r="2.0" fill="#333333" opacity="0.15"/>
<circle cx="644.8" cy="274.5" r="2.0" fill="#333333" opacity="0.15"/>
<circle cx="488.2" cy="216.6" r="2.0" fill="#333333" opacity="0.15"/>
<circle cx="396.7" cy="233.9" r="2.0" fill="#333333" opacity="0.15"/>
<circle cx="424.5" cy="181.5" r="2.0" fill="#333333" opacity="0.15"/>
<circle cx="411.4" cy="403.8" r="2.0" fill="#333333" opacity="0.15"/>
<circle cx="396.8" cy="296.8" r="2.0" fill="#333333" opacity="0.15"/>
<circle cx="384.9" cy="341.5" r="2.0" fill="#333333" opacity="0.15"/>
<circle cx="434.0" cy="417.7" r="2.0" fill="#333333" opacity="0.15"/>
<circle cx="460.6" cy="273.0" r="2.0" fill="#333333" opacity="0.15"/>
<circle cx="444.4" cy="408.3" r="2.0" fill="#333333" opacity="0.15"/>
<circle cx="612.5" cy="291.0" r="2.0" fill="#333333" opacity="0.15"/>
<circle cx="554.6" cy="195.8" r="2.0" fill="#333333" opacity="0.15"/>
<circle cx="526.7" cy="319.4" r="2.0" fill="#333333" opacity="0.15"/>
<circle cx="447.3" cy="389.1" r="2.0" fill="#333333" opacity="0.15"/>
<circle cx="302.7" cy="354.0" r="2.0" fill="#333333" opacity="0.15"/>
<circle cx="328.7" cy="238.1" r="2.0" fill="#333333" opacity="0.15"/>
<circle cx="420.3" cy="299.6" r="2.0" fill="#333333" opacity="0.15"/>
<circle cx="383.3" cy="288.0" r="2.0" fill="#333333" opacity="0.15"/>
<circle cx="301.9" cy="208.4" r="2.0" fill="#333333" opacity="0.15"/>
<circle cx="325.4" cy="235.0" r="2.0" fill="#333333" opacity="0.15"/>
<circle cx="593.3" cy="311.1" r="2.0" fill="#333333" opacity="0.15"/>
<circle cx="624.5" cy="341.8" r="2.0" fill="#333333" opacity="0.15"/>
<circle cx="457.1" cy="240.8" r="2.0" fill="#333333" opacity="0.15"/>
<circle cx="454.8" cy="301.5" r="2.0" fill="#333333" opacity="0.15"/>
<circle cx="533.5" cy="341.9" r="2.0" fill="#333333" opacity="0.15"/>
<circle cx="457.8" cy="379.8" r="2.0" fill="#333333" opacity="0.15"/>
<circle cx="366.9" cy="426.4" r="2.0" fill="#333333" opacity="0.15"/>
<circle cx="389.9" cy="402.9" r="2.0" fill="#333333" opacity="0.15"/>
<circle cx="507.8" cy="389.0" r="2.0" fill="#333333" opacity="0.15"/>
<circle cx="406.4" cy="393.6" r="2.0" fill="#333333" opacity="0.15"/>
<circle cx="570.5" cy="221.3" r="2.0" fill="#333333" opacity="0.15"/>
<circle cx="597.2" cy="303.8" r="2.0" fill="#333333" opacity="0.15"/>
<circle cx="338.6" cy="234.0" r="2.0" fill="#333333" opacity="0.15"/>
<circle cx="578.4" cy="255.9" r="2.0" fill="#333333" opacity="0.15"/>
<circle cx="500.7" cy="321.2" r="2.0" fill="#333333" opacity="0.15"/>
<circle cx="526.3" cy="381.7" r="2.0" fill="#333333" opacity="0.15"/>
<circle cx="613.8" cy="297.5" r="2.0" fill="#333333" opacity="0.15"/>
<circle cx="474.0" cy="426.7" r="2.0" fill="#333333" opacity="0.15"/>
<circle cx="413.7" cy="285.8" r="2.0" fill="#333333" opacity="0.15"/>
<circle cx="371.3" cy="348.3" r="2.0" fill="#333333" opacity="0.15"/>
<circle cx="359.5" cy="459.7" r="2.0" fill="#333333" opacity="0.15"/>
<circle cx="402.4" cy="231.1" r="2.0" fill="#333333" opacity="0.15"/>
<circle cx="641.1" cy="314.2" r="2.0" fill="#333333" opacity="0.15"/>
<circle cx="272.2" cy="250.5" r="2.0" fill="#333333" opacity="0.15"/>
<circle cx="459.2" cy="394.9" r="2.0" fill="#333333" opacity="0.15"/>
<circle cx="472.8" cy="263.5" r="2.0" fill="#333333" opacity="0.15"/>
<circle cx="576.7" cy="141.7" r="2.0" fill="#333333" opacity="0.15"/>
<circle cx="558.0" cy="480.7" r="2.0" fill="#333333" opacity="0.15"/>
<circle cx="484.8" cy="394.7" r="2.0" fill="#333333" opacity="0.15"/>
<circle cx="474.0" cy="330.7" r="2.0" fill="#333333" opacity="0.15"/>
<circle cx="439.7" cy="441.0" r="2.0" fill="#333333" opacity="0.15"/>
<circle cx="416.0" cy="462.1" r="2.0" fill="#333333" opacity="0.15"/>
<circle cx="255.6" cy="195.2" r="2.0" fill="#333333" opacity="0.15"/>
<circle cx="367.7" cy="234.3" r="2.0" fill="#333333" opacity="0.15"/>
<circle cx="430.8" cy="375.1" r="2.0" fill="#333333" opacity="0.15"/>
<circle cx="497.3" cy="221.2" r="2.0" fill="#333333" opacity="0.15"/>
<circle cx="331.1" cy="222.7" r="2.0" fill="#333333" opacity="0.15"/>
<circle cx="593.2" cy="360.4" r="2.0" fill="#333333" opacity="0.15"/>
<circle cx="701.1" cy="267.9" r="2.2" fill="#d95f59" opacity="0.22"/>
<circle cx="624.3" cy="278.2" r="2.2" fill="#d95f59" opacity="0.22"/>
<circle cx="284.8" cy="369.2" r="2.2" fill="#d95f59" opacity="0.22"/>
<circle cx="265.7" cy="407.2" r="2.2" fill="#d95f59" opacity="0.22"/>
<circle cx="209.8" cy="397.4" r="2.2" fill="#d95f59" opacity="0.22"/>
<circle cx="219.6" cy="423.1" r="2.2" fill="#d95f59" opacity="0.22"/>
<circle cx="327.1" cy="365.3" r="2.2" fill="#d95f59" opacity="0.22"/>
<circle cx="277.0" cy="458.9" r="2.2" fill="#d95f59" opacity="0.22"/>
<circle cx="660.7" cy="230.8" r="2.2" fill="#d95f59" opacity="0.22"/>
<circle cx="245.3" cy="417.1" r="2.2" fill="#d95f59" opacity="0.22"/>
<circle cx="334.1" cy="397.9" r="2.2" fill="#d95f59" opacity="0.22"/>
<circle cx="678.6" cy="269.6" r="2.2" fill="#d95f59" opacity="0.22"/>
<circle cx="263.9" cy="399.7" r="2.2" fill="#d95f59" opacity="0.22"/>
<circle cx="267.0" cy="401.6" r="2.2" fill="#d95f59" opacity="0.22"/>
<circle cx="239.5" cy="373.9" r="2.2" fill="#d95f59" opacity="0.22"/>
<circle cx="230.6" cy="396.3" r="2.2" fill="#d95f59" opacity="0.22"/>
<circle cx="614.8" cy="229.2" r="2.2" fill="#d95f59" opacity="0.22"/>
<circle cx="311.5" cy="351.5" r="2.2" fill="#d95f59" opacity="0.22"/>
<circle cx="645.0" cy="225.7" r="2.2" fill="#d95f59" opacity="0.22"/>
<circle cx="277.6" cy="387.9" r="2.2" fill="#d95f59" opacity="0.22"/>
<circle cx="242.2" cy="365.3" r="2.2" fill="#d95f59" opacity="0.22"/>
<circle cx="673.2" cy="259.7" r="2.2" fill="#d95f59" opacity="0.22"/>
<circle cx="232.1" cy="384.5" r="2.2" fill="#d95f59" opacity="0.22"/>
<circle cx="576.3" cy="264.5" r="2.2" fill="#d95f59" opacity="0.22"/>
<circle cx="312.6" cy="382.2" r="2.2" fill="#d95f59" opacity="0.22"/>
<circle cx="604.0" cy="247.6" r="2.2" fill="#d95f59" opacity="0.22"/>
<circle cx="691.0" cy="244.3" r="2.2" fill="#d95f59" opacity="0.22"/>
<circle cx="623.1" cy="296.9" r="2.2" fill="#d95f59" opacity="0.22"/>
<circle cx="197.6" cy="426.7" r="2.2" fill="#d95f59" opacity="0.22"/>
<circle cx="652.4" cy="290.1" r="2.2" fill="#d95f59" opacity="0.22"/>
<circle cx="688.5" cy="264.1" r="2.2" fill="#d95f59" opacity="0.22"/>
<circle cx="251.5" cy="428.4" r="2.2" fill="#d95f59" opacity="0.22"/>
<circle cx="620.0" cy="216.2" r="2.2" fill="#d95f59" opacity="0.22"/>
<circle cx="614.7" cy="226.0" r="2.2" fill="#d95f59" opacity="0.22"/>
<circle cx="620.9" cy="257.2" r="2.2" fill="#d95f59" opacity="0.22"/>
<circle cx="229.5" cy="376.6" r="2.2" fill="#d95f59" opacity="0.22"/>
<circle cx="262.1" cy="367.8" r="2.2" fill="#d95f59" opacity="0.22"/>
<circle cx="611.3" cy="251.5" r="2.2" fill="#d95f59" opacity="0.22"/>
<circle cx="290.2" cy="353.7" r="2.2" fill="#d95f59" opacity="0.22"/>
<circle cx="651.9" cy="246.7" r="2.2" fill="#d95f59" opacity="0.22"/>
<circle cx="209.6" cy="443.3" r="2.2" fill="#d95f59" opacity="0.22"/>
<circle cx="705.8" cy="264.7" r="2.2" fill="#d95f59" opacity="0.22"/>
<circle cx="701.5" cy="320.2" r="2.2" fill="#d95f59" opacity="0.22"/>
<circle cx="282.0" cy="391.2" r="2.2" fill="#d95f59" opacity="0.22"/>
<circle cx="675.4" cy="271.1" r="2.2" fill="#d95f59" opacity="0.22"/>
<circle cx="650.8" cy="282.6" r="2.2" fill="#d95f59" opacity="0.22"/>
<circle cx="670.1" cy="254.6" r="2.2" fill="#d95f59" opacity="0.22"/>
<circle cx="243.6" cy="416.7" r="2.2" fill="#d95f59" opacity="0.22"/>
<circle cx="699.0" cy="268.1" r="2.2" fill="#d95f59" opacity="0.22"/>
<circle cx="288.0" cy="426.8" r="2.2" fill="#d95f59" opacity="0.22"/>
<circle cx="313.4" cy="380.4" r="2.2" fill="#d95f59" opacity="0.22"/>
<circle cx="659.4" cy="241.5" r="2.2" fill="#d95f59" opacity="0.22"/>
<circle cx="558.5" cy="282.8" r="2.2" fill="#d95f59" opacity="0.22"/>
<circle cx="638.0" cy="258.7" r="2.2" fill="#d95f59" opacity="0.22"/>
<circle cx="687.9" cy="247.1" r="2.2" fill="#d95f59" opacity="0.22"/>
<circle cx="289.4" cy="389.1" r="2.2" fill="#d95f59" opacity="0.22"/>
<circle cx="237.9" cy="344.4" r="2.2" fill="#d95f59" opacity="0.22"/>
<circle cx="704.4" cy="278.9" r="2.2" fill="#d95f59" opacity="0.22"/>
<circle cx="273.8" cy="371.2" r="2.2" fill="#d95f59" opacity="0.22"/>
<circle cx="605.9" cy="218.9" r="2.2" fill="#d95f59" opacity="0.22"/>
<circle cx="253.2" cy="402.9" r="2.2" fill="#d95f59" opacity="0.22"/>
<circle cx="707.2" cy="249.7" r="2.2" fill="#d95f59" opacity="0.22"/>
<circle cx="685.3" cy="240.4" r="2.2" fill="#d95f59" opacity="0.22"/>
<circle cx="327.8" cy="394.8" r="2.2" fill="#d95f59" opacity="0.22"/>
<circle cx="273.2" cy="387.0" r="2.2" fill="#d95f59" opacity="0.22"/>
<circle cx="658.5" cy="200.0" r="2.2" fill="#d95f59" opacity="0.22"/>
<circle cx="254.5" cy="327.0" r="2.2" fill="#d95f59" opacity="0.22"/>
<circle cx="701.5" cy="245.4" r="2.2" fill="#d95f59" opacity="0.22"/>
<circle cx="278.5" cy="424.8" r="2.2" fill="#d95f59" opacity="0.22"/>
<circle cx="640.9" cy="234.0" r="2.2" fill="#d95f59" opacity="0.22"/>
<circle cx="603.3" cy="289.8" r="2.2" fill="#d95f59" opacity="0.22"/>
<circle cx="705.5" cy="267.0" r="2.2" fill="#d95f59" opacity="0.22"/>
<circle cx="675.3" cy="225.6" r="2.2" fill="#d95f59" opacity="0.22"/>
<circle cx="618.8" cy="272.9" r="2.2" fill="#d95f59" opacity="0.22"/>
<circle cx="670.0" cy="207.3" r="2.2" fill="#d95f59" opacity="0.22"/>
<circle cx="639.2" cy="231.7" r="2.2" fill="#d95f59" opacity="0.22"/>
<circle cx="698.1" cy="289.2" r="2.2" fill="#d95f59" opacity="0.22"/>
<circle cx="299.0" cy="406.9" r="2.2" fill="#d95f59" opacity="0.22"/>
<circle cx="291.8" cy="396.3" r="2.2" fill="#d95f59" opacity="0.22"/>
<circle cx="647.4" cy="293.9" r="2.2" fill="#d95f59" opacity="0.22"/>
<circle cx="617.6" cy="271.4" r="2.2" fill="#d95f59" opacity="0.22"/>
<circle cx="227.9" cy="404.1" r="2.2" fill="#d95f59" opacity="0.22"/>
<circle cx="285.6" cy="381.7" r="2.2" fill="#d95f59" opacity="0.22"/>
<circle cx="645.7" cy="292.8" r="2.2" fill="#d95f59" opacity="0.22"/>
<circle cx="212.2" cy="372.0" r="2.2" fill="#d95f59" opacity="0.22"/>
<circle cx="316.6" cy="368.0" r="2.2" fill="#d95f59" opacity="0.22"/>
<circle cx="302.7" cy="386.1" r="2.2" fill="#d95f59" opacity="0.22"/>
<circle cx="658.1" cy="318.0" r="2.2" fill="#d95f59" opacity="0.22"/>
<circle cx="171.0" cy="317.8" r="2.2" fill="#d95f59" opacity="0.22"/>
<circle cx="584.8" cy="233.0" r="2.2" fill="#d95f59" opacity="0.22"/>
<circle cx="236.9" cy="364.4" r="2.2" fill="#d95f59" opacity="0.22"/>
<circle cx="283.7" cy="363.2" r="2.2" fill="#d95f59" opacity="0.22"/>
<circle cx="294.4" cy="389.5" r="2.2" fill="#d95f59" opacity="0.22"/>
<circle cx="337.8" cy="387.4" r="2.2" fill="#d95f59" opacity="0.22"/>
<circle cx="234.3" cy="393.1" r="2.2" fill="#d95f59" opacity="0.22"/>
<circle cx="683.0" cy="302.1" r="2.2" fill="#d95f59" opacity="0.22"/>
<circle cx="640.4" cy="304.2" r="2.2" fill="#d95f59" opacity="0.22"/>
<circle cx="196.9" cy="374.3" r="2.2" fill="#d95f59" opacity="0.22"/>
<circle cx="647.9" cy="188.7" r="2.2" fill="#d95f59" opacity="0.22"/>
<circle cx="637.2" cy="256.5" r="2.2" fill="#d95f59" opacity="0.22"/>
<circle cx="269.2" cy="440.1" r="2.2" fill="#d95f59" opacity="0.22"/>
<circle cx="229.7" cy="328.5" r="2.2" fill="#d95f59" opacity="0.22"/>
<circle cx="610.1" cy="228.7" r="2.2" fill="#d95f59" opacity="0.22"/>
<circle cx="599.0" cy="241.0" r="2.2" fill="#d95f59" opacity="0.22"/>
<circle cx="293.3" cy="417.9" r="2.2" fill="#d95f59" opacity="0.22"/>
<circle cx="654.3" cy="237.6" r="2.2" fill="#d95f59" opacity="0.22"/>
<circle cx="198.4" cy="368.2" r="2.2" fill="#d95f59" opacity="0.22"/>
<circle cx="670.8" cy="287.1" r="2.2" fill="#d95f59" opacity="0.22"/>
<circle cx="268.3" cy="392.4" r="2.2" fill="#d95f59" opacity="0.22"/>
<circle cx="668.6" cy="205.3" r="2.2" fill="#d95f59" opacity="0.22"/>
<circle cx="266.9" cy="372.6" r="2.2" fill="#d95f59" opacity="0.22"/>
<circle cx="274.4" cy="388.5" r="2.2" fill="#d95f59" opacity="0.22"/>
<circle cx="656.0" cy="262.2" r="2.2" fill="#d95f59" opacity="0.22"/>
<circle cx="658.8" cy="265.4" r="2.2" fill="#d95f59" opacity="0.22"/>
<circle cx="645.9" cy="316.8" r="2.2" fill="#d95f59" opacity="0.22"/>
<circle cx="245.8" cy="405.8" r="2.2" fill="#d95f59" opacity="0.22"/>
<circle cx="620.3" cy="242.2" r="2.2" fill="#d95f59" opacity="0.22"/>
<circle cx="657.7" cy="265.2" r="2.2" fill="#d95f59" opacity="0.22"/>
<circle cx="268.6" cy="423.6" r="2.2" fill="#d95f59" opacity="0.22"/>
<circle cx="271.6" cy="415.9" r="2.2" fill="#d95f59" opacity="0.22"/>
<circle cx="312.8" cy="388.3" r="2.2" fill="#d95f59" opacity="0.22"/>
<circle cx="242.6" cy="428.3" r="2.2" fill="#d95f59" opacity="0.22"/>
<circle cx="286.2" cy="381.1" r="2.2" fill="#d95f59" opacity="0.22"/>
<circle cx="268.3" cy="416.2" r="2.2" fill="#d95f59" opacity="0.22"/>
<circle cx="282.5" cy="364.3" r="2.2" fill="#d95f59" opacity="0.22"/>
<circle cx="386.0" cy="332.2" r="2.2" fill="#d95f59" opacity="0.22"/>
<circle cx="256.4" cy="368.6" r="2.2" fill="#d95f59" opacity="0.22"/>
<circle cx="283.7" cy="404.7" r="2.2" fill="#d95f59" opacity="0.22"/>
<circle cx="626.6" cy="298.5" r="2.2" fill="#d95f59" opacity="0.22"/>
<circle cx="215.8" cy="357.0" r="2.2" fill="#d95f59" opacity="0.22"/>
<line x1="470.8" y1="322.8" x2="520.5" y2="301.5" stroke="#8d8d8d" stroke-width="1.4" opacity="0.62" stroke-linecap="round"/><path d="M 514.4 308.6 L 520.5 301.5 L 511.1 301.0" fill="none" stroke="#8d8d8d" stroke-width="1.4" opacity="0.62" stroke-linecap="round"/>
<circle cx="470.8" cy="322.8" r="1.8" fill="#777777" opacity="0.35"/>
<line x1="460.2" y1="321.5" x2="404.8" y2="323.6" stroke="#8d8d8d" stroke-width="1.4" opacity="0.62" stroke-linecap="round"/><path d="M 413.1 319.2 L 404.8 323.6 L 413.4 327.4" fill="none" stroke="#8d8d8d" stroke-width="1.4" opacity="0.62" stroke-linecap="round"/>
<circle cx="460.2" cy="321.5" r="1.8" fill="#777777" opacity="0.35"/>
<line x1="464.1" y1="323.9" x2="519.5" y2="320.8" stroke="#8d8d8d" stroke-width="1.4" opacity="0.62" stroke-linecap="round"/><path d="M 511.3 325.4 L 519.5 320.8 L 510.8 317.2" fill="none" stroke="#8d8d8d" stroke-width="1.4" opacity="0.62" stroke-linecap="round"/>
<circle cx="464.1" cy="323.9" r="1.8" fill="#777777" opacity="0.35"/>
<line x1="465.2" y1="333.0" x2="515.3" y2="312.3" stroke="#8d8d8d" stroke-width="1.4" opacity="0.62" stroke-linecap="round"/><path d="M 509.0 319.3 L 515.3 312.3 L 505.9 311.8" fill="none" stroke="#8d8d8d" stroke-width="1.4" opacity="0.62" stroke-linecap="round"/>
<circle cx="465.2" cy="333.0" r="1.8" fill="#777777" opacity="0.35"/>
<line x1="475.7" y1="325.0" x2="420.2" y2="323.1" stroke="#8d8d8d" stroke-width="1.4" opacity="0.62" stroke-linecap="round"/><path d="M 428.8 319.3 L 420.2 323.1 L 428.5 327.5" fill="none" stroke="#8d8d8d" stroke-width="1.4" opacity="0.62" stroke-linecap="round"/>
<circle cx="475.7" cy="325.0" r="1.8" fill="#777777" opacity="0.35"/>
<line x1="468.6" y1="317.5" x2="415.2" y2="330.6" stroke="#8d8d8d" stroke-width="1.4" opacity="0.62" stroke-linecap="round"/><path d="M 422.4 324.6 L 415.2 330.6 L 424.4 332.6" fill="none" stroke="#8d8d8d" stroke-width="1.4" opacity="0.62" stroke-linecap="round"/>
<circle cx="468.6" cy="317.5" r="1.8" fill="#777777" opacity="0.35"/>
<line x1="465.9" y1="321.6" x2="413.8" y2="338.0" stroke="#8d8d8d" stroke-width="1.4" opacity="0.62" stroke-linecap="round"/><path d="M 420.6 331.6 L 413.8 338.0 L 423.1 339.4" fill="none" stroke="#8d8d8d" stroke-width="1.4" opacity="0.62" stroke-linecap="round"/>
<circle cx="465.9" cy="321.6" r="1.8" fill="#777777" opacity="0.35"/>
<line x1="466.9" y1="334.3" x2="412.8" y2="345.2" stroke="#8d8d8d" stroke-width="1.4" opacity="0.62" stroke-linecap="round"/><path d="M 420.3 339.5 L 412.8 345.2 L 421.9 347.5" fill="none" stroke="#8d8d8d" stroke-width="1.4" opacity="0.62" stroke-linecap="round"/>
<circle cx="466.9" cy="334.3" r="1.8" fill="#777777" opacity="0.35"/>
<line x1="463.6" y1="312.2" x2="517.2" y2="299.8" stroke="#8d8d8d" stroke-width="1.4" opacity="0.62" stroke-linecap="round"/><path d="M 509.9 305.7 L 517.2 299.8 L 508.0 297.7" fill="none" stroke="#8d8d8d" stroke-width="1.4" opacity="0.62" stroke-linecap="round"/>
<circle cx="463.6" cy="312.2" r="1.8" fill="#777777" opacity="0.35"/>
<line x1="468.4" y1="327.0" x2="413.5" y2="334.4" stroke="#8d8d8d" stroke-width="1.4" opacity="0.62" stroke-linecap="round"/><path d="M 421.4 329.2 L 413.5 334.4 L 422.5 337.3" fill="none" stroke="#8d8d8d" stroke-width="1.4" opacity="0.62" stroke-linecap="round"/>
<circle cx="468.4" cy="327.0" r="1.8" fill="#777777" opacity="0.35"/>
<line x1="472.5" y1="333.5" x2="521.2" y2="310.5" stroke="#8d8d8d" stroke-width="1.4" opacity="0.62" stroke-linecap="round"/><path d="M 515.3 317.8 L 521.2 310.5 L 511.8 310.4" fill="none" stroke="#8d8d8d" stroke-width="1.4" opacity="0.62" stroke-linecap="round"/>
<circle cx="472.5" cy="333.5" r="1.8" fill="#777777" opacity="0.35"/>
<line x1="459.0" y1="326.7" x2="407.2" y2="343.9" stroke="#8d8d8d" stroke-width="1.4" opacity="0.62" stroke-linecap="round"/><path d="M 414.0 337.4 L 407.2 343.9 L 416.6 345.1" fill="none" stroke="#8d8d8d" stroke-width="1.4" opacity="0.62" stroke-linecap="round"/>
<circle cx="459.0" cy="326.7" r="1.8" fill="#777777" opacity="0.35"/>
<line x1="463.7" y1="329.3" x2="417.5" y2="355.8" stroke="#8d8d8d" stroke-width="1.4" opacity="0.62" stroke-linecap="round"/><path d="M 422.8 348.1 L 417.5 355.8 L 426.9 355.1" fill="none" stroke="#8d8d8d" stroke-width="1.4" opacity="0.62" stroke-linecap="round"/>
<circle cx="463.7" cy="329.3" r="1.8" fill="#777777" opacity="0.35"/>
<line x1="447.0" y1="325.0" x2="394.4" y2="340.3" stroke="#8d8d8d" stroke-width="1.4" opacity="0.62" stroke-linecap="round"/><path d="M 401.4 334.0 L 394.4 340.3 L 403.7 341.9" fill="none" stroke="#8d8d8d" stroke-width="1.4" opacity="0.62" stroke-linecap="round"/>
<circle cx="447.0" cy="325.0" r="1.8" fill="#777777" opacity="0.35"/>
<line x1="459.1" y1="319.2" x2="510.5" y2="301.3" stroke="#8d8d8d" stroke-width="1.4" opacity="0.62" stroke-linecap="round"/><path d="M 503.9 307.9 L 510.5 301.3 L 501.2 300.2" fill="none" stroke="#8d8d8d" stroke-width="1.4" opacity="0.62" stroke-linecap="round"/>
<circle cx="459.1" cy="319.2" r="1.8" fill="#777777" opacity="0.35"/>
<line x1="461.2" y1="330.7" x2="408.4" y2="345.5" stroke="#8d8d8d" stroke-width="1.4" opacity="0.62" stroke-linecap="round"/><path d="M 415.4 339.3 L 408.4 345.5 L 417.6 347.2" fill="none" stroke="#8d8d8d" stroke-width="1.4" opacity="0.62" stroke-linecap="round"/>
<circle cx="461.2" cy="330.7" r="1.8" fill="#777777" opacity="0.35"/>
<line x1="474.5" y1="315.2" x2="528.5" y2="304.2" stroke="#8d8d8d" stroke-width="1.4" opacity="0.62" stroke-linecap="round"/><path d="M 521.0 309.9 L 528.5 304.2 L 519.4 301.9" fill="none" stroke="#8d8d8d" stroke-width="1.4" opacity="0.62" stroke-linecap="round"/>
<circle cx="474.5" cy="315.2" r="1.8" fill="#777777" opacity="0.35"/>
<line x1="453.8" y1="338.0" x2="407.4" y2="364.3" stroke="#8d8d8d" stroke-width="1.4" opacity="0.62" stroke-linecap="round"/><path d="M 412.7 356.5 L 407.4 364.3 L 416.8 363.6" fill="none" stroke="#8d8d8d" stroke-width="1.4" opacity="0.62" stroke-linecap="round"/>
<circle cx="453.8" cy="338.0" r="1.8" fill="#777777" opacity="0.35"/>
<line x1="482.9" y1="324.3" x2="534.5" y2="306.5" stroke="#8d8d8d" stroke-width="1.4" opacity="0.62" stroke-linecap="round"/><path d="M 527.8 313.1 L 534.5 306.5 L 525.1 305.4" fill="none" stroke="#8d8d8d" stroke-width="1.4" opacity="0.62" stroke-linecap="round"/>
<circle cx="482.9" cy="324.3" r="1.8" fill="#777777" opacity="0.35"/>
<line x1="462.3" y1="308.4" x2="516.8" y2="299.3" stroke="#8d8d8d" stroke-width="1.4" opacity="0.62" stroke-linecap="round"/><path d="M 509.1 304.7 L 516.8 299.3 L 507.8 296.7" fill="none" stroke="#8d8d8d" stroke-width="1.4" opacity="0.62" stroke-linecap="round"/>
<circle cx="462.3" cy="308.4" r="1.8" fill="#777777" opacity="0.35"/>
<line x1="467.1" y1="310.0" x2="521.4" y2="299.7" stroke="#8d8d8d" stroke-width="1.4" opacity="0.62" stroke-linecap="round"/><path d="M 513.8 305.3 L 521.4 299.7 L 512.3 297.3" fill="none" stroke="#8d8d8d" stroke-width="1.4" opacity="0.62" stroke-linecap="round"/>
<circle cx="467.1" cy="310.0" r="1.8" fill="#777777" opacity="0.35"/>
<line x1="447.0" y1="331.9" x2="396.0" y2="350.8" stroke="#8d8d8d" stroke-width="1.4" opacity="0.62" stroke-linecap="round"/><path d="M 402.5 344.0 L 396.0 350.8 L 405.3 351.7" fill="none" stroke="#8d8d8d" stroke-width="1.4" opacity="0.62" stroke-linecap="round"/>
<circle cx="447.0" cy="331.9" r="1.8" fill="#777777" opacity="0.35"/>
<line x1="484.2" y1="332.9" x2="534.2" y2="312.1" stroke="#8d8d8d" stroke-width="1.4" opacity="0.62" stroke-linecap="round"/><path d="M 528.0 319.2 L 534.2 312.1 L 524.8 311.6" fill="none" stroke="#8d8d8d" stroke-width="1.4" opacity="0.62" stroke-linecap="round"/>
<circle cx="484.2" cy="332.9" r="1.8" fill="#777777" opacity="0.35"/>
<line x1="482.1" y1="315.6" x2="530.9" y2="292.9" stroke="#8d8d8d" stroke-width="1.4" opacity="0.62" stroke-linecap="round"/><path d="M 524.9 300.2 L 530.9 292.9 L 521.5 292.7" fill="none" stroke="#8d8d8d" stroke-width="1.4" opacity="0.62" stroke-linecap="round"/>
<circle cx="482.1" cy="315.6" r="1.8" fill="#777777" opacity="0.35"/>
<line x1="475.3" y1="319.9" x2="421.8" y2="332.9" stroke="#8d8d8d" stroke-width="1.4" opacity="0.62" stroke-linecap="round"/><path d="M 429.1 326.9 L 421.8 332.9 L 431.0 334.8" fill="none" stroke="#8d8d8d" stroke-width="1.4" opacity="0.62" stroke-linecap="round"/>
<circle cx="475.3" cy="319.9" r="1.8" fill="#777777" opacity="0.35"/>
<line x1="451.2" y1="337.7" x2="497.7" y2="311.5" stroke="#8d8d8d" stroke-width="1.4" opacity="0.62" stroke-linecap="round"/><path d="M 492.3 319.3 L 497.7 311.5 L 488.3 312.1" fill="none" stroke="#8d8d8d" stroke-width="1.4" opacity="0.62" stroke-linecap="round"/>
<circle cx="451.2" cy="337.7" r="1.8" fill="#777777" opacity="0.35"/>
<circle cx="464.8" cy="324.0" r="6.0" fill="#111111" opacity="0.95"/>
<line x1="464.8" y1="324.0" x2="395.2" y2="261.5" stroke="#238b8d" stroke-width="4.0" opacity="0.95" stroke-linecap="round"/><path d="M 406.7 264.8 L 395.2 261.5 L 399.7 272.6" fill="none" stroke="#238b8d" stroke-width="4.0" opacity="0.95" stroke-linecap="round"/>
<text x="478.8" y="313.0" font-family="Arial, sans-serif" font-size="13" font-weight="700" fill="#222">query (x,t)</text>
<text x="478.8" y="333.0" font-family="Arial, sans-serif" font-size="13" fill="#238b8d">averaged direction</text>
<rect x="58" y="546" width="560" height="54" rx="0" fill="#ffffff" stroke="#ddd"/>
<text x="74" y="570" font-family="Arial, sans-serif" font-size="13" fill="#444">gray: conditional velocities from sampled endpoint pairs near the same x_t</text>
<text x="74" y="590" font-family="Arial, sans-serif" font-size="13" fill="#444">teal: empirical average used as a local marginal-field estimate</text>
</svg>
