<svg xmlns="http://www.w3.org/2000/svg" width="1120" height="700" viewBox="0 0 1120 700" role="img" aria-label="Official flow_matching package check comparing exact CondOTProbPath samples with ODESolver trajectories">
<rect width="100%" height="100%" fill="#fbfbf8"/>
<text x="62" y="38" font-family="Arial, sans-serif" font-size="23" font-weight="700" fill="#222">Official package check: exact path and ODESolver agree</text>
<text x="62" y="63" font-family="Arial, sans-serif" font-size="14" fill="#555">Same endpoints and time grid; dashed exact paths are drawn on top of solver paths so the overlay is inspectable.</text>
<rect x="62.0" y="88.0" width="212.0" height="64" fill="#ffffff" stroke="#d8d8d8"/>
<text x="76.0" y="112.0" font-family="Arial, sans-serif" font-size="13" font-weight="700" fill="#222">CondOTProbPath</text>
<text x="76.0" y="133.0" font-family="Arial, sans-serif" font-size="11" fill="#555">sample exact x_t(t)</text>
<rect x="310.0" y="88.0" width="212.0" height="64" fill="#ffffff" stroke="#d8d8d8"/>
<text x="324.0" y="112.0" font-family="Arial, sans-serif" font-size="13" font-weight="700" fill="#222">velocity callable</text>
<text x="324.0" y="133.0" font-family="Arial, sans-serif" font-size="11" fill="#555">matching conditional u_t</text>
<rect x="558.0" y="88.0" width="212.0" height="64" fill="#ffffff" stroke="#d8d8d8"/>
<text x="572.0" y="112.0" font-family="Arial, sans-serif" font-size="13" font-weight="700" fill="#222">ODESolver.sample</text>
<text x="572.0" y="133.0" font-family="Arial, sans-serif" font-size="11" fill="#555">midpoint, t up to 0.98</text>
<rect x="806.0" y="88.0" width="212.0" height="64" fill="#ffffff" stroke="#d8d8d8"/>
<text x="820.0" y="112.0" font-family="Arial, sans-serif" font-size="13" font-weight="700" fill="#222">verified output</text>
<text x="820.0" y="133.0" font-family="Arial, sans-serif" font-size="11" fill="#555">compare at the same t</text>
<line x1="274.0" y1="120.0" x2="302.0" y2="120.0" stroke="#777777" stroke-width="1.5" stroke-linecap="round"/><path d="M 296.0 123.7 L 302.0 120.0 L 296.0 116.3" fill="none" stroke="#777777" stroke-width="1.5" stroke-linecap="round"/>
<line x1="522.0" y1="120.0" x2="550.0" y2="120.0" stroke="#777777" stroke-width="1.5" stroke-linecap="round"/><path d="M 544.0 123.7 L 550.0 120.0 L 544.0 116.3" fill="none" stroke="#777777" stroke-width="1.5" stroke-linecap="round"/>
<line x1="770.0" y1="120.0" x2="798.0" y2="120.0" stroke="#777777" stroke-width="1.5" stroke-linecap="round"/><path d="M 792.0 123.7 L 798.0 120.0 L 792.0 116.3" fill="none" stroke="#777777" stroke-width="1.5" stroke-linecap="round"/>
<rect x="62.0" y="190.0" width="662.0" height="370.0" fill="#fff" stroke="#ddd"/>
<text x="76.0" y="214.0" font-family="Arial, sans-serif" font-size="15" font-weight="700" fill="#222">Path agreement on the same conditional endpoints</text>
<rect x="760.0" y="190.0" width="300.0" height="370.0" fill="#ffffff" stroke="#ddd"/>
<text x="776.0" y="216.0" font-family="Arial, sans-serif" font-size="15" font-weight="700" fill="#222">Verified output at t=0.98</text>
<polyline points="451.6,281.0 437.1,289.7 422.6,298.4 408.2,307.1 393.7,315.9 379.2,324.6 364.7,333.3 350.3,342.0 335.8,350.7 321.3,359.4 306.8,368.1 292.3,376.8 277.9,385.5 263.4,394.2 248.9,403.0 234.4,411.7 220.0,420.4 205.5,429.1" fill="none" stroke="#2f6f8f" stroke-width="2.4" opacity="0.72" stroke-linecap="round" stroke-linejoin="round"/>
<polyline points="381.7,387.2 393.8,384.8 405.8,382.4 417.9,380.0 430.0,377.6 442.1,375.2 454.2,372.8 466.2,370.4 478.3,368.0 490.4,365.6 502.5,363.2 514.6,360.8 526.6,358.4 538.7,356.0 550.8,353.6 562.9,351.2 575.0,348.8 587.0,346.4" fill="none" stroke="#2f6f8f" stroke-width="2.4" opacity="0.72" stroke-linecap="round" stroke-linejoin="round"/>
<polyline points="592.6,353.9 566.8,358.0 541.1,362.1 515.4,366.2 489.6,370.3 463.9,374.3 438.1,378.4 412.4,382.5 386.7,386.6 360.9,390.7 335.2,394.7 309.5,398.8 283.7,402.9 258.0,407.0 232.2,411.1 206.5,415.1 180.8,419.2 155.0,423.3" fill="none" stroke="#2f6f8f" stroke-width="2.4" opacity="0.72" stroke-linecap="round" stroke-linejoin="round"/>
<polyline points="305.4,399.0 322.2,395.1 339.0,391.2 355.7,387.2 372.5,383.3 389.3,379.4 406.1,375.5 422.9,371.6 439.6,367.6 456.4,363.7 473.2,359.8 490.0,355.9 506.8,352.0 523.5,348.1 540.3,344.1 557.1,340.2 573.9,336.3 590.7,332.4" fill="none" stroke="#2f6f8f" stroke-width="2.4" opacity="0.72" stroke-linecap="round" stroke-linejoin="round"/>
<polyline points="233.0,370.6 230.8,374.2 228.6,377.8 226.4,381.4 224.3,385.0 222.1,388.6 219.9,392.2 217.8,395.8 215.6,399.4 213.4,403.0 211.2,406.6 209.1,410.2 206.9,413.8 204.7,417.3 202.5,420.9 200.4,424.5 198.2,428.1 196.0,431.7" fill="none" stroke="#2f6f8f" stroke-width="2.4" opacity="0.72" stroke-linecap="round" stroke-linejoin="round"/>
<polyline points="421.0,462.3 430.6,454.9 440.1,447.5 449.7,440.1 459.3,432.7 468.9,425.3 478.5,417.9 488.1,410.5 497.6,403.2 507.2,395.8 516.8,388.4 526.4,381.0 536.0,373.6 545.5,366.2 555.1,358.8 564.7,351.4 574.3,344.1 583.9,336.7" fill="none" stroke="#2f6f8f" stroke-width="2.4" opacity="0.72" stroke-linecap="round" stroke-linejoin="round"/>
<polyline points="398.6,397.9 388.0,399.9 377.5,402.0 367.0,404.1 356.4,406.2 345.9,408.3 335.3,410.3 324.8,412.4 314.3,414.5 303.7,416.6 293.2,418.7 282.7,420.7 272.1,422.8 261.6,424.9 251.1,427.0 240.5,429.1 230.0,431.1 219.4,433.2" fill="none" stroke="#2f6f8f" stroke-width="2.4" opacity="0.72" stroke-linecap="round" stroke-linejoin="round"/>
<polyline points="603.6,401.0 603.1,398.9 602.6,396.8 602.1,394.7 601.6,392.6 601.1,390.6 600.6,388.5 600.1,386.4 599.6,384.3 599.1,382.2 598.7,380.1 598.2,378.0 597.7,375.9 597.2,373.8 596.7,371.7 596.2,369.6 595.7,367.6 595.2,365.5" fill="none" stroke="#2f6f8f" stroke-width="2.4" opacity="0.72" stroke-linecap="round" stroke-linejoin="round"/>
<polyline points="451.6,281.0 437.1,289.7 422.6,298.4 408.2,307.1 393.7,315.9 379.2,324.6 364.7,333.3 350.3,342.0 335.8,350.7 321.3,359.4 306.8,368.1 292.3,376.8 277.9,385.5 263.4,394.2 248.9,403.0 234.4,411.7 220.0,420.4 205.5,429.1" fill="none" stroke="#d88c2f" stroke-width="2.1" opacity="0.92" stroke-linecap="round" stroke-linejoin="round" stroke-dasharray="7 5"/>
<polyline points="381.7,387.2 393.8,384.8 405.8,382.4 417.9,380.0 430.0,377.6 442.1,375.2 454.2,372.8 466.2,370.4 478.3,368.0 490.4,365.6 502.5,363.2 514.6,360.8 526.6,358.4 538.7,356.0 550.8,353.6 562.9,351.2 575.0,348.8 587.0,346.4" fill="none" stroke="#d88c2f" stroke-width="2.1" opacity="0.92" stroke-linecap="round" stroke-linejoin="round" stroke-dasharray="7 5"/>
<polyline points="592.6,353.9 566.8,358.0 541.1,362.1 515.4,366.2 489.6,370.3 463.9,374.3 438.1,378.4 412.4,382.5 386.7,386.6 360.9,390.7 335.2,394.7 309.5,398.8 283.7,402.9 258.0,407.0 232.2,411.1 206.5,415.1 180.8,419.2 155.0,423.3" fill="none" stroke="#d88c2f" stroke-width="2.1" opacity="0.92" stroke-linecap="round" stroke-linejoin="round" stroke-dasharray="7 5"/>
<polyline points="305.4,399.0 322.2,395.1 339.0,391.2 355.7,387.2 372.5,383.3 389.3,379.4 406.1,375.5 422.9,371.6 439.6,367.6 456.4,363.7 473.2,359.8 490.0,355.9 506.8,352.0 523.5,348.1 540.3,344.1 557.1,340.2 573.9,336.3 590.7,332.4" fill="none" stroke="#d88c2f" stroke-width="2.1" opacity="0.92" stroke-linecap="round" stroke-linejoin="round" stroke-dasharray="7 5"/>
<polyline points="233.0,370.6 230.8,374.2 228.6,377.8 226.4,381.4 224.3,385.0 222.1,388.6 219.9,392.2 217.8,395.8 215.6,399.4 213.4,403.0 211.2,406.6 209.1,410.2 206.9,413.8 204.7,417.3 202.5,420.9 200.4,424.5 198.2,428.1 196.0,431.7" fill="none" stroke="#d88c2f" stroke-width="2.1" opacity="0.92" stroke-linecap="round" stroke-linejoin="round" stroke-dasharray="7 5"/>
<polyline points="421.0,462.3 430.6,454.9 440.1,447.5 449.7,440.1 459.3,432.7 468.9,425.3 478.5,417.9 488.1,410.5 497.6,403.2 507.2,395.8 516.8,388.4 526.4,381.0 536.0,373.6 545.5,366.2 555.1,358.8 564.7,351.4 574.3,344.1 583.9,336.7" fill="none" stroke="#d88c2f" stroke-width="2.1" opacity="0.92" stroke-linecap="round" stroke-linejoin="round" stroke-dasharray="7 5"/>
<polyline points="398.6,397.9 388.0,399.9 377.5,402.0 367.0,404.1 356.4,406.2 345.9,408.3 335.3,410.3 324.8,412.4 314.3,414.5 303.7,416.6 293.2,418.7 282.7,420.7 272.1,422.8 261.6,424.9 251.1,427.0 240.5,429.1 230.0,431.1 219.4,433.2" fill="none" stroke="#d88c2f" stroke-width="2.1" opacity="0.92" stroke-linecap="round" stroke-linejoin="round" stroke-dasharray="7 5"/>
<polyline points="603.6,401.0 603.1,398.9 602.6,396.8 602.1,394.7 601.6,392.6 601.1,390.6 600.6,388.5 600.1,386.4 599.6,384.3 599.1,382.2 598.7,380.1 598.2,378.0 597.7,375.9 597.2,373.8 596.7,371.7 596.2,369.6 595.7,367.6 595.2,365.5" fill="none" stroke="#d88c2f" stroke-width="2.1" opacity="0.92" stroke-linecap="round" stroke-linejoin="round" stroke-dasharray="7 5"/>
<circle cx="451.6" cy="281.0" r="3.4" fill="#222222" opacity="0.88"/>
<circle cx="381.7" cy="387.2" r="3.4" fill="#222222" opacity="0.88"/>
<circle cx="592.6" cy="353.9" r="3.4" fill="#222222" opacity="0.88"/>
<circle cx="305.4" cy="399.0" r="3.4" fill="#222222" opacity="0.88"/>
<circle cx="233.0" cy="370.6" r="3.4" fill="#222222" opacity="0.88"/>
<circle cx="421.0" cy="462.3" r="3.4" fill="#222222" opacity="0.88"/>
<circle cx="398.6" cy="397.9" r="3.4" fill="#222222" opacity="0.88"/>
<circle cx="603.6" cy="401.0" r="3.4" fill="#222222" opacity="0.88"/>
<circle cx="200.4" cy="432.1" r="4.1" fill="#d95f59" opacity="0.88"/>
<circle cx="591.2" cy="345.6" r="4.1" fill="#d95f59" opacity="0.88"/>
<circle cx="146.1" cy="424.7" r="4.1" fill="#d95f59" opacity="0.88"/>
<circle cx="596.5" cy="331.0" r="4.1" fill="#d95f59" opacity="0.88"/>
<circle cx="195.3" cy="433.0" r="4.1" fill="#d95f59" opacity="0.88"/>
<circle cx="587.2" cy="334.1" r="4.1" fill="#d95f59" opacity="0.88"/>
<circle cx="215.8" cy="433.9" r="4.1" fill="#d95f59" opacity="0.88"/>
<circle cx="595.0" cy="364.7" r="4.1" fill="#d95f59" opacity="0.88"/>
<line x1="80.0" y1="242.0" x2="110.0" y2="242.0" stroke="#2f6f8f" stroke-width="2.4" stroke-linecap="round"/>
<text x="120.0" y="246.0" font-family="Arial, sans-serif" font-size="12" fill="#444">ODESolver trajectory</text>
<line x1="274.0" y1="242.0" x2="304.0" y2="242.0" stroke="#d88c2f" stroke-width="2.1" stroke-dasharray="7 5" stroke-linecap="round"/>
<text x="314.0" y="246.0" font-family="Arial, sans-serif" font-size="12" fill="#444">exact CondOTProbPath sample</text>
<circle cx="524.0" cy="242.0" r="3.4" fill="#222222" opacity="0.88"/>
<text x="536.0" y="246.0" font-family="Arial, sans-serif" font-size="12" fill="#444">x0</text>
<circle cx="582.0" cy="242.0" r="4.1" fill="#d95f59" opacity="0.88"/>
<text x="594.0" y="246.0" font-family="Arial, sans-serif" font-size="12" fill="#444">x1</text>
<text x="778.0" y="250.0" font-family="Arial, sans-serif" font-size="12" fill="#555">solver[-1] vs exact path[-1]</text>
<text x="778.0" y="284.0" font-family="Arial, sans-serif" font-size="25" font-weight="700" fill="#238b8d">mean gap 1.43e-07</text>
<text x="778.0" y="308.0" font-family="Arial, sans-serif" font-size="13" fill="#444">max gap 2.46e-07; method midpoint, step 0.02</text>
<text x="778.0" y="344.0" font-family="Arial, sans-serif" font-size="12" font-weight="700" fill="#222">terminal residuals, magnified 8e7x</text>
<rect x="778.0" y="356.0" width="250" height="88" fill="#fbfbf8" stroke="#e3e3e3"/>
<line x1="810.0" y1="386.0" x2="829.1" y2="386.0" stroke="#777777" stroke-width="1.0" opacity="0.72"/>
<circle cx="810.0" cy="386.0" r="2.7" fill="#d88c2f" opacity="0.90"/>
<circle cx="829.1" cy="386.0" r="2.6" fill="#2f6f8f" opacity="0.90"/>
<line x1="868.0" y1="386.0" x2="868.0" y2="386.0" stroke="#777777" stroke-width="1.0" opacity="0.72"/>
<circle cx="868.0" cy="386.0" r="2.7" fill="#d88c2f" opacity="0.90"/>
<circle cx="868.0" cy="386.0" r="2.6" fill="#2f6f8f" opacity="0.90"/>
<line x1="926.0" y1="386.0" x2="906.9" y2="381.2" stroke="#777777" stroke-width="1.0" opacity="0.72"/>
<circle cx="926.0" cy="386.0" r="2.7" fill="#d88c2f" opacity="0.90"/>
<circle cx="906.9" cy="381.2" r="2.6" fill="#2f6f8f" opacity="0.90"/>
<line x1="984.0" y1="386.0" x2="1003.1" y2="390.8" stroke="#777777" stroke-width="1.0" opacity="0.72"/>
<circle cx="984.0" cy="386.0" r="2.7" fill="#d88c2f" opacity="0.90"/>
<circle cx="1003.1" cy="390.8" r="2.6" fill="#2f6f8f" opacity="0.90"/>
<line x1="810.0" y1="420.0" x2="810.0" y2="420.0" stroke="#777777" stroke-width="1.0" opacity="0.72"/>
<circle cx="810.0" cy="420.0" r="2.7" fill="#d88c2f" opacity="0.90"/>
<circle cx="810.0" cy="420.0" r="2.6" fill="#2f6f8f" opacity="0.90"/>
<line x1="868.0" y1="420.0" x2="868.0" y2="424.8" stroke="#777777" stroke-width="1.0" opacity="0.72"/>
<circle cx="868.0" cy="420.0" r="2.7" fill="#d88c2f" opacity="0.90"/>
<circle cx="868.0" cy="424.8" r="2.6" fill="#2f6f8f" opacity="0.90"/>
<line x1="926.0" y1="420.0" x2="935.5" y2="420.0" stroke="#777777" stroke-width="1.0" opacity="0.72"/>
<circle cx="926.0" cy="420.0" r="2.7" fill="#d88c2f" opacity="0.90"/>
<circle cx="935.5" cy="420.0" r="2.6" fill="#2f6f8f" opacity="0.90"/>
<line x1="984.0" y1="420.0" x2="964.9" y2="420.0" stroke="#777777" stroke-width="1.0" opacity="0.72"/>
<circle cx="984.0" cy="420.0" r="2.7" fill="#d88c2f" opacity="0.90"/>
<circle cx="964.9" cy="420.0" r="2.6" fill="#2f6f8f" opacity="0.90"/>
<text x="778.0" y="474.0" font-family="Arial, sans-serif" font-size="12" fill="#555">remaining path segment to endpoint, not solver error</text>
<rect x="778.0" y="488.0" width="230" height="13" fill="#eeeeee"/>
<rect x="778.0" y="488.0" width="120.4" height="13" fill="#d95f59" opacity="0.78"/>
<text x="778.0" y="522.0" font-family="Arial, sans-serif" font-size="13" fill="#444">mean remaining distance: 0.0524</text>
<rect x="62" y="586" width="998" height="62" fill="#fff" stroke="#ddd"/>
<text x="82" y="612" font-family="Arial, sans-serif" font-size="13" fill="#444">Package: flow_matching 1.0.10; components: CondOTProbPath and ODESolver.</text>
<text x="82" y="632" font-family="Arial, sans-serif" font-size="13" fill="#444">Dashed exact paths are rendered above the solid solver paths; only the residual inset is magnified.</text>
</svg>
