<svg xmlns="http://www.w3.org/2000/svg" width="980" height="620" viewBox="0 0 980 620" role="img" aria-label="Official flow_matching package smoke test with CondOTProbPath and ODESolver">
<rect width="100%" height="100%" fill="#fbfbf8"/>
<text x="62" y="38" font-family="Arial, sans-serif" font-size="24" font-weight="700" fill="#222">Official package smoke test: path object plus ODE solver</text>
<text x="62" y="62" font-family="Arial, sans-serif" font-size="14" fill="#555">Dotted exact conditional paths from CondOTProbPath; solid solver paths from ODESolver using the matching conditional velocity.</text>
<rect x="62.0" y="86.0" width="856.0" height="420.0" fill="#fff" stroke="#ddd"/>
<polyline points="565.8,160.8 547.0,172.3 528.3,183.7 509.6,195.1 490.9,206.6 472.2,218.0 453.4,229.4 434.7,240.9 416.0,252.3 397.3,263.7 378.6,275.2 359.8,286.6 341.1,298.0 322.4,309.5 303.7,320.9 285.0,332.3 266.2,343.8 247.5,355.2" fill="none" stroke="#8d8d8d" stroke-width="1.2" stroke-dasharray="4 4" opacity="0.45"/>
<polyline points="475.4,300.3 491.0,297.1 506.6,294.0 522.2,290.8 537.9,287.7 553.5,284.5 569.1,281.3 584.7,278.2 600.3,275.0 615.9,271.9 631.6,268.7 647.2,265.6 662.8,262.4 678.4,259.3 694.0,256.1 709.7,253.0 725.3,249.8 740.9,246.7" fill="none" stroke="#8d8d8d" stroke-width="1.2" stroke-dasharray="4 4" opacity="0.45"/>
<polyline points="748.1,256.5 714.8,261.9 681.5,267.2 648.2,272.6 614.9,278.0 581.7,283.3 548.4,288.7 515.1,294.0 481.8,299.4 448.5,304.7 415.3,310.1 382.0,315.5 348.7,320.8 315.4,326.2 282.1,331.5 248.9,336.9 215.6,342.2 182.3,347.6" fill="none" stroke="#8d8d8d" stroke-width="1.2" stroke-dasharray="4 4" opacity="0.45"/>
<polyline points="376.7,315.7 398.4,310.5 420.1,305.4 441.8,300.2 463.5,295.1 485.2,290.0 506.9,284.8 528.6,279.7 550.3,274.5 572.0,269.4 593.7,264.3 615.4,259.1 637.1,254.0 658.8,248.8 680.5,243.7 702.2,238.5 723.9,233.4 745.6,228.3" fill="none" stroke="#8d8d8d" stroke-width="1.2" stroke-dasharray="4 4" opacity="0.45"/>
<polyline points="283.1,278.4 280.2,283.1 277.4,287.8 274.6,292.5 271.8,297.3 269.0,302.0 266.2,306.7 263.4,311.4 260.6,316.2 257.8,320.9 255.0,325.6 252.2,330.3 249.4,335.0 246.5,339.8 243.7,344.5 240.9,349.2 238.1,353.9 235.3,358.7" fill="none" stroke="#8d8d8d" stroke-width="1.2" stroke-dasharray="4 4" opacity="0.45"/>
<polyline points="526.2,398.7 538.6,389.0 551.0,379.3 563.3,369.6 575.7,359.9 588.1,350.2 600.5,340.5 612.9,330.8 625.3,321.1 637.7,311.5 650.1,301.8 662.5,292.1 674.9,282.4 687.3,272.7 699.6,263.0 712.0,253.3 724.4,243.6 736.8,233.9" fill="none" stroke="#8d8d8d" stroke-width="1.2" stroke-dasharray="4 4" opacity="0.45"/>
<polyline points="497.2,314.2 483.6,316.9 469.9,319.6 456.3,322.4 442.7,325.1 429.1,327.8 415.4,330.6 401.8,333.3 388.2,336.0 374.6,338.8 361.0,341.5 347.3,344.2 333.7,346.9 320.1,349.7 306.5,352.4 292.8,355.1 279.2,357.9 265.6,360.6" fill="none" stroke="#8d8d8d" stroke-width="1.2" stroke-dasharray="4 4" opacity="0.45"/>
<polyline points="762.3,318.3 761.6,315.6 761.0,312.8 760.4,310.1 759.7,307.3 759.1,304.6 758.5,301.9 757.8,299.1 757.2,296.4 756.6,293.6 755.9,290.9 755.3,288.1 754.7,285.4 754.0,282.6 753.4,279.9 752.7,277.2 752.1,274.4 751.5,271.7" fill="none" stroke="#8d8d8d" stroke-width="1.2" stroke-dasharray="4 4" opacity="0.45"/>
<polyline points="565.8,160.8 547.0,172.3 528.3,183.7 509.6,195.1 490.9,206.6 472.2,218.0 453.4,229.4 434.7,240.9 416.0,252.3 397.3,263.7 378.6,275.2 359.8,286.6 341.1,298.0 322.4,309.5 303.7,320.9 285.0,332.3 266.2,343.8 247.5,355.2" fill="none" stroke="#2f6f8f" stroke-width="1.8" opacity="0.86"/>
<polyline points="475.4,300.3 491.0,297.1 506.6,294.0 522.2,290.8 537.9,287.7 553.5,284.5 569.1,281.3 584.7,278.2 600.3,275.0 615.9,271.9 631.6,268.7 647.2,265.6 662.8,262.4 678.4,259.3 694.0,256.1 709.7,253.0 725.3,249.8 740.9,246.7" fill="none" stroke="#2f6f8f" stroke-width="1.8" opacity="0.86"/>
<polyline points="748.1,256.5 714.8,261.9 681.5,267.2 648.2,272.6 614.9,278.0 581.7,283.3 548.4,288.7 515.1,294.0 481.8,299.4 448.5,304.7 415.3,310.1 382.0,315.5 348.7,320.8 315.4,326.2 282.1,331.5 248.9,336.9 215.6,342.2 182.3,347.6" fill="none" stroke="#2f6f8f" stroke-width="1.8" opacity="0.86"/>
<polyline points="376.7,315.7 398.4,310.5 420.1,305.4 441.8,300.2 463.5,295.1 485.2,290.0 506.9,284.8 528.6,279.7 550.3,274.5 572.0,269.4 593.7,264.3 615.4,259.1 637.1,254.0 658.8,248.8 680.5,243.7 702.2,238.5 723.9,233.4 745.6,228.3" fill="none" stroke="#2f6f8f" stroke-width="1.8" opacity="0.86"/>
<polyline points="283.1,278.4 280.2,283.1 277.4,287.8 274.6,292.5 271.8,297.3 269.0,302.0 266.2,306.7 263.4,311.4 260.6,316.2 257.8,320.9 255.0,325.6 252.2,330.3 249.4,335.0 246.5,339.8 243.7,344.5 240.9,349.2 238.1,353.9 235.3,358.7" fill="none" stroke="#2f6f8f" stroke-width="1.8" opacity="0.86"/>
<polyline points="526.2,398.7 538.6,389.0 551.0,379.3 563.3,369.6 575.7,359.9 588.1,350.2 600.5,340.5 612.9,330.8 625.3,321.1 637.7,311.5 650.1,301.8 662.5,292.1 674.9,282.4 687.3,272.7 699.6,263.0 712.0,253.3 724.4,243.6 736.8,233.9" fill="none" stroke="#2f6f8f" stroke-width="1.8" opacity="0.86"/>
<polyline points="497.2,314.2 483.6,316.9 469.9,319.6 456.3,322.4 442.7,325.1 429.1,327.8 415.4,330.6 401.8,333.3 388.2,336.0 374.6,338.8 361.0,341.5 347.3,344.2 333.7,346.9 320.1,349.7 306.5,352.4 292.8,355.1 279.2,357.9 265.6,360.6" fill="none" stroke="#2f6f8f" stroke-width="1.8" opacity="0.86"/>
<polyline points="762.3,318.3 761.6,315.6 761.0,312.8 760.4,310.1 759.7,307.3 759.1,304.6 758.5,301.9 757.8,299.1 757.2,296.4 756.6,293.6 755.9,290.9 755.3,288.1 754.7,285.4 754.0,282.6 753.4,279.9 752.7,277.2 752.1,274.4 751.5,271.7" fill="none" stroke="#2f6f8f" stroke-width="1.8" opacity="0.86"/>
<circle cx="565.8" cy="160.8" r="3.4" fill="#222222" opacity="0.88"/>
<circle cx="475.4" cy="300.3" r="3.4" fill="#222222" opacity="0.88"/>
<circle cx="748.1" cy="256.5" r="3.4" fill="#222222" opacity="0.88"/>
<circle cx="376.7" cy="315.7" r="3.4" fill="#222222" opacity="0.88"/>
<circle cx="283.1" cy="278.4" r="3.4" fill="#222222" opacity="0.88"/>
<circle cx="526.2" cy="398.7" r="3.4" fill="#222222" opacity="0.88"/>
<circle cx="497.2" cy="314.2" r="3.4" fill="#222222" opacity="0.88"/>
<circle cx="762.3" cy="318.3" r="3.4" fill="#222222" opacity="0.88"/>
<circle cx="241.0" cy="359.2" r="4.0" fill="#d95f59" opacity="0.88"/>
<circle cx="746.3" cy="245.6" r="4.0" fill="#d95f59" opacity="0.88"/>
<circle cx="170.7" cy="349.4" r="4.0" fill="#d95f59" opacity="0.88"/>
<circle cx="753.1" cy="226.5" r="4.0" fill="#d95f59" opacity="0.88"/>
<circle cx="234.3" cy="360.3" r="4.0" fill="#d95f59" opacity="0.88"/>
<circle cx="741.1" cy="230.5" r="4.0" fill="#d95f59" opacity="0.88"/>
<circle cx="260.9" cy="361.5" r="4.0" fill="#d95f59" opacity="0.88"/>
<circle cx="751.3" cy="270.7" r="4.0" fill="#d95f59" opacity="0.88"/>
<rect x="62" y="532" width="856" height="52" fill="#fff" stroke="#ddd"/>
<text x="82" y="558" font-family="Arial, sans-serif" font-size="13" fill="#444">Package: flow_matching 1.0.10; components: CondOTProbPath, ODESolver.</text>
<text x="82" y="578" font-family="Arial, sans-serif" font-size="13" fill="#444">Mean endpoint error at t=0.98 against the conditional target: 0.0524.</text>
</svg>
