<svg xmlns="http://www.w3.org/2000/svg" width="1100" height="620" viewBox="0 0 1100 620" role="img" aria-label="Endpoint coupling comparison for independent pairing and minibatch optimal transport pairing">
<rect width="100%" height="100%" fill="#fbfbf8"/>
<text x="54" y="38" font-family="Arial, sans-serif" font-size="24" font-weight="700" fill="#222">Endpoint coupling changes the paths the model sees</text>
<text x="54" y="62" font-family="Arial, sans-serif" font-size="14" fill="#555">Black points are source samples, vermillion points are data samples, gray segments are conditional paths inside one batch.</text>
<rect x="54.0" y="88.0" width="470.0" height="390.0" fill="#fff" stroke="#ddd"/>
<text x="68.0" y="114.0" font-family="Arial, sans-serif" font-size="18" font-weight="700" fill="#222">Independent random pairing</text>
<text x="68.0" y="136.0" font-family="Arial, sans-serif" font-size="12" fill="#555">mean cost 7.430; crossings 16</text>
<line x1="231.5" y1="316.9" x2="426.7" y2="280.1" stroke="#8d8d8d" stroke-width="1.2" opacity="0.55"/>
<line x1="261.8" y1="341.1" x2="189.6" y2="369.0" stroke="#8d8d8d" stroke-width="1.2" opacity="0.55"/>
<line x1="255.6" y1="366.9" x2="411.9" y2="228.8" stroke="#8d8d8d" stroke-width="1.2" opacity="0.55"/>
<line x1="279.8" y1="327.9" x2="413.7" y2="272.0" stroke="#8d8d8d" stroke-width="1.2" opacity="0.55"/>
<line x1="330.3" y1="314.5" x2="425.6" y2="231.6" stroke="#8d8d8d" stroke-width="1.2" opacity="0.55"/>
<line x1="369.6" y1="230.2" x2="421.0" y2="233.2" stroke="#8d8d8d" stroke-width="1.2" opacity="0.55"/>
<line x1="292.6" y1="282.1" x2="162.6" y2="355.1" stroke="#8d8d8d" stroke-width="1.2" opacity="0.55"/>
<line x1="286.7" y1="257.3" x2="450.6" y2="232.0" stroke="#8d8d8d" stroke-width="1.2" opacity="0.55"/>
<line x1="206.0" y1="412.7" x2="420.5" y2="241.9" stroke="#8d8d8d" stroke-width="1.2" opacity="0.55"/>
<line x1="318.5" y1="251.9" x2="181.4" y2="337.2" stroke="#8d8d8d" stroke-width="1.2" opacity="0.55"/>
<line x1="358.4" y1="366.2" x2="427.9" y2="241.3" stroke="#8d8d8d" stroke-width="1.2" opacity="0.55"/>
<line x1="338.8" y1="356.0" x2="430.5" y2="235.8" stroke="#8d8d8d" stroke-width="1.2" opacity="0.55"/>
<circle cx="231.5" cy="316.9" r="4.0" fill="#222" opacity="0.86"/>
<circle cx="261.8" cy="341.1" r="4.0" fill="#222" opacity="0.86"/>
<circle cx="255.6" cy="366.9" r="4.0" fill="#222" opacity="0.86"/>
<circle cx="279.8" cy="327.9" r="4.0" fill="#222" opacity="0.86"/>
<circle cx="330.3" cy="314.5" r="4.0" fill="#222" opacity="0.86"/>
<circle cx="369.6" cy="230.2" r="4.0" fill="#222" opacity="0.86"/>
<circle cx="292.6" cy="282.1" r="4.0" fill="#222" opacity="0.86"/>
<circle cx="286.7" cy="257.3" r="4.0" fill="#222" opacity="0.86"/>
<circle cx="206.0" cy="412.7" r="4.0" fill="#222" opacity="0.86"/>
<circle cx="318.5" cy="251.9" r="4.0" fill="#222" opacity="0.86"/>
<circle cx="358.4" cy="366.2" r="4.0" fill="#222" opacity="0.86"/>
<circle cx="338.8" cy="356.0" r="4.0" fill="#222" opacity="0.86"/>
<circle cx="450.6" cy="232.0" r="4.6" fill="#d95f59" opacity="0.82"/>
<circle cx="411.9" cy="228.8" r="4.6" fill="#d95f59" opacity="0.82"/>
<circle cx="420.5" cy="241.9" r="4.6" fill="#d95f59" opacity="0.82"/>
<circle cx="427.9" cy="241.3" r="4.6" fill="#d95f59" opacity="0.82"/>
<circle cx="189.6" cy="369.0" r="4.6" fill="#d95f59" opacity="0.82"/>
<circle cx="413.7" cy="272.0" r="4.6" fill="#d95f59" opacity="0.82"/>
<circle cx="426.7" cy="280.1" r="4.6" fill="#d95f59" opacity="0.82"/>
<circle cx="430.5" cy="235.8" r="4.6" fill="#d95f59" opacity="0.82"/>
<circle cx="181.4" cy="337.2" r="4.6" fill="#d95f59" opacity="0.82"/>
<circle cx="425.6" cy="231.6" r="4.6" fill="#d95f59" opacity="0.82"/>
<circle cx="421.0" cy="233.2" r="4.6" fill="#d95f59" opacity="0.82"/>
<circle cx="162.6" cy="355.1" r="4.6" fill="#d95f59" opacity="0.82"/>
<rect x="574.0" y="88.0" width="470.0" height="390.0" fill="#fff" stroke="#ddd"/>
<text x="588.0" y="114.0" font-family="Arial, sans-serif" font-size="18" font-weight="700" fill="#222">Minibatch OT assignment</text>
<text x="588.0" y="136.0" font-family="Arial, sans-serif" font-size="12" fill="#555">mean cost 3.917; crossings 3</text>
<line x1="751.5" y1="316.9" x2="701.4" y2="337.2" stroke="#8d8d8d" stroke-width="1.2" opacity="0.55"/>
<line x1="781.8" y1="341.1" x2="933.7" y2="272.0" stroke="#8d8d8d" stroke-width="1.2" opacity="0.55"/>
<line x1="775.6" y1="366.9" x2="709.6" y2="369.0" stroke="#8d8d8d" stroke-width="1.2" opacity="0.55"/>
<line x1="799.8" y1="327.9" x2="940.5" y2="241.9" stroke="#8d8d8d" stroke-width="1.2" opacity="0.55"/>
<line x1="850.3" y1="314.5" x2="950.5" y2="235.8" stroke="#8d8d8d" stroke-width="1.2" opacity="0.55"/>
<line x1="889.6" y1="230.2" x2="970.6" y2="232.0" stroke="#8d8d8d" stroke-width="1.2" opacity="0.55"/>
<line x1="812.6" y1="282.1" x2="941.0" y2="233.2" stroke="#8d8d8d" stroke-width="1.2" opacity="0.55"/>
<line x1="806.7" y1="257.3" x2="931.9" y2="228.8" stroke="#8d8d8d" stroke-width="1.2" opacity="0.55"/>
<line x1="726.0" y1="412.7" x2="682.6" y2="355.1" stroke="#8d8d8d" stroke-width="1.2" opacity="0.55"/>
<line x1="838.5" y1="251.9" x2="945.6" y2="231.6" stroke="#8d8d8d" stroke-width="1.2" opacity="0.55"/>
<line x1="878.4" y1="366.2" x2="946.7" y2="280.1" stroke="#8d8d8d" stroke-width="1.2" opacity="0.55"/>
<line x1="858.8" y1="356.0" x2="947.9" y2="241.3" stroke="#8d8d8d" stroke-width="1.2" opacity="0.55"/>
<circle cx="751.5" cy="316.9" r="4.0" fill="#222" opacity="0.86"/>
<circle cx="781.8" cy="341.1" r="4.0" fill="#222" opacity="0.86"/>
<circle cx="775.6" cy="366.9" r="4.0" fill="#222" opacity="0.86"/>
<circle cx="799.8" cy="327.9" r="4.0" fill="#222" opacity="0.86"/>
<circle cx="850.3" cy="314.5" r="4.0" fill="#222" opacity="0.86"/>
<circle cx="889.6" cy="230.2" r="4.0" fill="#222" opacity="0.86"/>
<circle cx="812.6" cy="282.1" r="4.0" fill="#222" opacity="0.86"/>
<circle cx="806.7" cy="257.3" r="4.0" fill="#222" opacity="0.86"/>
<circle cx="726.0" cy="412.7" r="4.0" fill="#222" opacity="0.86"/>
<circle cx="838.5" cy="251.9" r="4.0" fill="#222" opacity="0.86"/>
<circle cx="878.4" cy="366.2" r="4.0" fill="#222" opacity="0.86"/>
<circle cx="858.8" cy="356.0" r="4.0" fill="#222" opacity="0.86"/>
<circle cx="970.6" cy="232.0" r="4.6" fill="#d95f59" opacity="0.82"/>
<circle cx="931.9" cy="228.8" r="4.6" fill="#d95f59" opacity="0.82"/>
<circle cx="940.5" cy="241.9" r="4.6" fill="#d95f59" opacity="0.82"/>
<circle cx="947.9" cy="241.3" r="4.6" fill="#d95f59" opacity="0.82"/>
<circle cx="709.6" cy="369.0" r="4.6" fill="#d95f59" opacity="0.82"/>
<circle cx="933.7" cy="272.0" r="4.6" fill="#d95f59" opacity="0.82"/>
<circle cx="946.7" cy="280.1" r="4.6" fill="#d95f59" opacity="0.82"/>
<circle cx="950.5" cy="235.8" r="4.6" fill="#d95f59" opacity="0.82"/>
<circle cx="701.4" cy="337.2" r="4.6" fill="#d95f59" opacity="0.82"/>
<circle cx="945.6" cy="231.6" r="4.6" fill="#d95f59" opacity="0.82"/>
<circle cx="941.0" cy="233.2" r="4.6" fill="#d95f59" opacity="0.82"/>
<circle cx="682.6" cy="355.1" r="4.6" fill="#d95f59" opacity="0.82"/>
<rect x="54" y="510" width="990" height="68" fill="#fff" stroke="#ddd"/>
<text x="74" y="536" font-family="Arial, sans-serif" font-size="13" fill="#444">This batch assignment minimizes squared endpoint distance only inside the displayed minibatch.</text>
<text x="74" y="558" font-family="Arial, sans-serif" font-size="13" fill="#444">Lower segment cost and fewer crossings are path-geometry diagnostics, not a proof of a global transport plan.</text>
</svg>
