<svg xmlns="http://www.w3.org/2000/svg" width="760" height="460" viewBox="0 0 760 460" role="img" aria-label="Flow matching toy paths">
<rect width="100%" height="100%" fill="#fbfbf8"/>
<text x="40" y="30" font-family="Arial, sans-serif" font-size="18" fill="#222">Noise samples move along the learned velocity field</text>
<circle cx="535.8" cy="196.2" r="2.4" fill="#d95f59" opacity="0.35"/>
<circle cx="566.5" cy="175.2" r="2.4" fill="#d95f59" opacity="0.35"/>
<circle cx="623.2" cy="189.9" r="2.4" fill="#d95f59" opacity="0.35"/>
<circle cx="600.3" cy="151.4" r="2.4" fill="#d95f59" opacity="0.35"/>
<circle cx="528.9" cy="207.3" r="2.4" fill="#d95f59" opacity="0.35"/>
<circle cx="212.1" cy="299.6" r="2.4" fill="#d95f59" opacity="0.35"/>
<circle cx="564.5" cy="153.7" r="2.4" fill="#d95f59" opacity="0.35"/>
<circle cx="550.6" cy="180.6" r="2.4" fill="#d95f59" opacity="0.35"/>
<circle cx="209.8" cy="272.6" r="2.4" fill="#d95f59" opacity="0.35"/>
<circle cx="218.3" cy="269.3" r="2.4" fill="#d95f59" opacity="0.35"/>
<circle cx="205.1" cy="306.5" r="2.4" fill="#d95f59" opacity="0.35"/>
<circle cx="541.2" cy="160.7" r="2.4" fill="#d95f59" opacity="0.35"/>
<circle cx="188.9" cy="263.2" r="2.4" fill="#d95f59" opacity="0.35"/>
<circle cx="544.1" cy="162.2" r="2.4" fill="#d95f59" opacity="0.35"/>
<circle cx="174.5" cy="285.2" r="2.4" fill="#d95f59" opacity="0.35"/>
<circle cx="529.4" cy="188.1" r="2.4" fill="#d95f59" opacity="0.35"/>
<circle cx="533.2" cy="163.9" r="2.4" fill="#d95f59" opacity="0.35"/>
<circle cx="200.8" cy="278.2" r="2.4" fill="#d95f59" opacity="0.35"/>
<circle cx="551.8" cy="179.3" r="2.4" fill="#d95f59" opacity="0.35"/>
<circle cx="209.0" cy="288.5" r="2.4" fill="#d95f59" opacity="0.35"/>
<circle cx="573.1" cy="179.3" r="2.4" fill="#d95f59" opacity="0.35"/>
<circle cx="210.0" cy="292.3" r="2.4" fill="#d95f59" opacity="0.35"/>
<circle cx="211.3" cy="274.2" r="2.4" fill="#d95f59" opacity="0.35"/>
<circle cx="231.7" cy="294.4" r="2.4" fill="#d95f59" opacity="0.35"/>
<circle cx="235.2" cy="220.9" r="2.4" fill="#d95f59" opacity="0.35"/>
<circle cx="574.9" cy="167.8" r="2.4" fill="#d95f59" opacity="0.35"/>
<circle cx="223.1" cy="324.9" r="2.4" fill="#d95f59" opacity="0.35"/>
<circle cx="541.3" cy="188.8" r="2.4" fill="#d95f59" opacity="0.35"/>
<circle cx="256.8" cy="290.1" r="2.4" fill="#d95f59" opacity="0.35"/>
<circle cx="188.2" cy="287.1" r="2.4" fill="#d95f59" opacity="0.35"/>
<circle cx="272.0" cy="275.7" r="2.4" fill="#d95f59" opacity="0.35"/>
<circle cx="167.8" cy="295.7" r="2.4" fill="#d95f59" opacity="0.35"/>
<circle cx="195.2" cy="292.8" r="2.4" fill="#d95f59" opacity="0.35"/>
<circle cx="168.8" cy="297.5" r="2.4" fill="#d95f59" opacity="0.35"/>
<circle cx="221.3" cy="280.0" r="2.4" fill="#d95f59" opacity="0.35"/>
<circle cx="246.7" cy="265.9" r="2.4" fill="#d95f59" opacity="0.35"/>
<circle cx="219.7" cy="286.9" r="2.4" fill="#d95f59" opacity="0.35"/>
<circle cx="574.2" cy="190.1" r="2.4" fill="#d95f59" opacity="0.35"/>
<circle cx="193.9" cy="318.6" r="2.4" fill="#d95f59" opacity="0.35"/>
<circle cx="213.1" cy="278.7" r="2.4" fill="#d95f59" opacity="0.35"/>
<circle cx="583.2" cy="171.2" r="2.4" fill="#d95f59" opacity="0.35"/>
<circle cx="562.1" cy="196.6" r="2.4" fill="#d95f59" opacity="0.35"/>
<circle cx="573.6" cy="219.2" r="2.4" fill="#d95f59" opacity="0.35"/>
<circle cx="593.2" cy="185.4" r="2.4" fill="#d95f59" opacity="0.35"/>
<circle cx="536.4" cy="201.4" r="2.4" fill="#d95f59" opacity="0.35"/>
<circle cx="197.5" cy="321.6" r="2.4" fill="#d95f59" opacity="0.35"/>
<circle cx="211.8" cy="295.4" r="2.4" fill="#d95f59" opacity="0.35"/>
<circle cx="557.3" cy="168.9" r="2.4" fill="#d95f59" opacity="0.35"/>
<circle cx="595.7" cy="195.2" r="2.4" fill="#d95f59" opacity="0.35"/>
<circle cx="204.1" cy="312.8" r="2.4" fill="#d95f59" opacity="0.35"/>
<circle cx="557.5" cy="164.3" r="2.4" fill="#d95f59" opacity="0.35"/>
<circle cx="565.7" cy="183.0" r="2.4" fill="#d95f59" opacity="0.35"/>
<circle cx="544.3" cy="198.7" r="2.4" fill="#d95f59" opacity="0.35"/>
<circle cx="586.4" cy="227.3" r="2.4" fill="#d95f59" opacity="0.35"/>
<circle cx="206.0" cy="279.5" r="2.4" fill="#d95f59" opacity="0.35"/>
<circle cx="238.6" cy="296.1" r="2.4" fill="#d95f59" opacity="0.35"/>
<circle cx="206.0" cy="325.2" r="2.4" fill="#d95f59" opacity="0.35"/>
<circle cx="197.1" cy="255.7" r="2.4" fill="#d95f59" opacity="0.35"/>
<circle cx="200.6" cy="249.9" r="2.4" fill="#d95f59" opacity="0.35"/>
<circle cx="585.2" cy="165.5" r="2.4" fill="#d95f59" opacity="0.35"/>
<circle cx="188.8" cy="277.5" r="2.4" fill="#d95f59" opacity="0.35"/>
<circle cx="547.4" cy="188.9" r="2.4" fill="#d95f59" opacity="0.35"/>
<circle cx="544.1" cy="189.6" r="2.4" fill="#d95f59" opacity="0.35"/>
<circle cx="210.0" cy="304.6" r="2.4" fill="#d95f59" opacity="0.35"/>
<circle cx="166.8" cy="258.4" r="2.4" fill="#d95f59" opacity="0.35"/>
<circle cx="231.6" cy="290.4" r="2.4" fill="#d95f59" opacity="0.35"/>
<circle cx="248.6" cy="283.5" r="2.4" fill="#d95f59" opacity="0.35"/>
<circle cx="217.6" cy="270.0" r="2.4" fill="#d95f59" opacity="0.35"/>
<circle cx="277.9" cy="269.8" r="2.4" fill="#d95f59" opacity="0.35"/>
<circle cx="550.1" cy="196.0" r="2.4" fill="#d95f59" opacity="0.35"/>
<circle cx="190.3" cy="273.0" r="2.4" fill="#d95f59" opacity="0.35"/>
<circle cx="215.2" cy="298.2" r="2.4" fill="#d95f59" opacity="0.35"/>
<circle cx="228.8" cy="252.1" r="2.4" fill="#d95f59" opacity="0.35"/>
<circle cx="538.7" cy="194.4" r="2.4" fill="#d95f59" opacity="0.35"/>
<circle cx="217.6" cy="279.6" r="2.4" fill="#d95f59" opacity="0.35"/>
<circle cx="562.5" cy="186.2" r="2.4" fill="#d95f59" opacity="0.35"/>
<circle cx="178.5" cy="242.2" r="2.4" fill="#d95f59" opacity="0.35"/>
<circle cx="601.0" cy="183.5" r="2.4" fill="#d95f59" opacity="0.35"/>
<circle cx="570.4" cy="179.1" r="2.4" fill="#d95f59" opacity="0.35"/>
<circle cx="231.9" cy="284.5" r="2.4" fill="#d95f59" opacity="0.35"/>
<circle cx="603.5" cy="184.7" r="2.4" fill="#d95f59" opacity="0.35"/>
<circle cx="223.0" cy="278.1" r="2.4" fill="#d95f59" opacity="0.35"/>
<circle cx="207.8" cy="336.4" r="2.4" fill="#d95f59" opacity="0.35"/>
<circle cx="225.0" cy="289.0" r="2.4" fill="#d95f59" opacity="0.35"/>
<circle cx="215.1" cy="251.8" r="2.4" fill="#d95f59" opacity="0.35"/>
<circle cx="548.7" cy="239.8" r="2.4" fill="#d95f59" opacity="0.35"/>
<circle cx="243.5" cy="270.5" r="2.4" fill="#d95f59" opacity="0.35"/>
<circle cx="215.4" cy="266.9" r="2.4" fill="#d95f59" opacity="0.35"/>
<circle cx="186.5" cy="310.2" r="2.4" fill="#d95f59" opacity="0.35"/>
<circle cx="201.2" cy="300.8" r="2.4" fill="#d95f59" opacity="0.35"/>
<circle cx="173.2" cy="271.5" r="2.4" fill="#d95f59" opacity="0.35"/>
<circle cx="552.8" cy="200.0" r="2.4" fill="#d95f59" opacity="0.35"/>
<circle cx="540.1" cy="160.6" r="2.4" fill="#d95f59" opacity="0.35"/>
<circle cx="185.6" cy="294.0" r="2.4" fill="#d95f59" opacity="0.35"/>
<circle cx="531.1" cy="187.9" r="2.4" fill="#d95f59" opacity="0.35"/>
<circle cx="190.5" cy="273.4" r="2.4" fill="#d95f59" opacity="0.35"/>
<circle cx="187.5" cy="304.8" r="2.4" fill="#d95f59" opacity="0.35"/>
<circle cx="219.5" cy="291.9" r="2.4" fill="#d95f59" opacity="0.35"/>
<circle cx="218.2" cy="335.3" r="2.4" fill="#d95f59" opacity="0.35"/>
<circle cx="496.2" cy="242.3" r="2.4" fill="#d95f59" opacity="0.35"/>
<circle cx="566.6" cy="216.2" r="2.4" fill="#d95f59" opacity="0.35"/>
<circle cx="563.2" cy="167.7" r="2.4" fill="#d95f59" opacity="0.35"/>
<circle cx="531.4" cy="181.8" r="2.4" fill="#d95f59" opacity="0.35"/>
<circle cx="251.1" cy="286.4" r="2.4" fill="#d95f59" opacity="0.35"/>
<circle cx="563.0" cy="189.4" r="2.4" fill="#d95f59" opacity="0.35"/>
<circle cx="192.6" cy="261.5" r="2.4" fill="#d95f59" opacity="0.35"/>
<circle cx="548.4" cy="200.5" r="2.4" fill="#d95f59" opacity="0.35"/>
<circle cx="201.8" cy="281.7" r="2.4" fill="#d95f59" opacity="0.35"/>
<circle cx="194.2" cy="267.3" r="2.4" fill="#d95f59" opacity="0.35"/>
<circle cx="216.2" cy="253.0" r="2.4" fill="#d95f59" opacity="0.35"/>
<circle cx="554.0" cy="146.4" r="2.4" fill="#d95f59" opacity="0.35"/>
<circle cx="505.1" cy="159.1" r="2.4" fill="#d95f59" opacity="0.35"/>
<circle cx="605.8" cy="186.6" r="2.4" fill="#d95f59" opacity="0.35"/>
<circle cx="547.1" cy="154.5" r="2.4" fill="#d95f59" opacity="0.35"/>
<circle cx="561.6" cy="182.4" r="2.4" fill="#d95f59" opacity="0.35"/>
<circle cx="227.7" cy="249.8" r="2.4" fill="#d95f59" opacity="0.35"/>
<circle cx="491.3" cy="209.2" r="2.4" fill="#d95f59" opacity="0.35"/>
<circle cx="191.4" cy="238.3" r="2.4" fill="#d95f59" opacity="0.35"/>
<circle cx="500.7" cy="190.8" r="2.4" fill="#d95f59" opacity="0.35"/>
<circle cx="570.4" cy="182.2" r="2.4" fill="#d95f59" opacity="0.35"/>
<circle cx="253.2" cy="310.7" r="2.4" fill="#d95f59" opacity="0.35"/>
<circle cx="181.0" cy="254.0" r="2.4" fill="#d95f59" opacity="0.35"/>
<circle cx="175.6" cy="296.2" r="2.4" fill="#d95f59" opacity="0.35"/>
<circle cx="531.8" cy="139.8" r="2.4" fill="#d95f59" opacity="0.35"/>
<circle cx="591.8" cy="174.8" r="2.4" fill="#d95f59" opacity="0.35"/>
<circle cx="524.2" cy="183.4" r="2.4" fill="#d95f59" opacity="0.35"/>
<circle cx="226.3" cy="279.9" r="2.4" fill="#d95f59" opacity="0.35"/>
<circle cx="520.4" cy="187.9" r="2.4" fill="#d95f59" opacity="0.35"/>
<circle cx="532.8" cy="177.4" r="2.4" fill="#d95f59" opacity="0.35"/>
<circle cx="272.7" cy="334.5" r="2.4" fill="#d95f59" opacity="0.35"/>
<circle cx="554.9" cy="174.3" r="2.4" fill="#d95f59" opacity="0.35"/>
<circle cx="204.0" cy="295.9" r="2.4" fill="#d95f59" opacity="0.35"/>
<circle cx="526.4" cy="187.3" r="2.4" fill="#d95f59" opacity="0.35"/>
<circle cx="215.4" cy="285.5" r="2.4" fill="#d95f59" opacity="0.35"/>
<circle cx="247.4" cy="303.6" r="2.4" fill="#d95f59" opacity="0.35"/>
<circle cx="541.9" cy="188.5" r="2.4" fill="#d95f59" opacity="0.35"/>
<circle cx="518.1" cy="168.6" r="2.4" fill="#d95f59" opacity="0.35"/>
<circle cx="611.2" cy="153.9" r="2.4" fill="#d95f59" opacity="0.35"/>
<circle cx="202.0" cy="260.1" r="2.4" fill="#d95f59" opacity="0.35"/>
<circle cx="175.3" cy="264.3" r="2.4" fill="#d95f59" opacity="0.35"/>
<circle cx="583.6" cy="171.6" r="2.4" fill="#d95f59" opacity="0.35"/>
<circle cx="236.9" cy="245.7" r="2.4" fill="#d95f59" opacity="0.35"/>
<circle cx="574.7" cy="186.5" r="2.4" fill="#d95f59" opacity="0.35"/>
<circle cx="559.8" cy="170.4" r="2.4" fill="#d95f59" opacity="0.35"/>
<circle cx="177.4" cy="272.8" r="2.4" fill="#d95f59" opacity="0.35"/>
<circle cx="549.9" cy="212.9" r="2.4" fill="#d95f59" opacity="0.35"/>
<circle cx="566.8" cy="192.8" r="2.4" fill="#d95f59" opacity="0.35"/>
<circle cx="570.2" cy="161.6" r="2.4" fill="#d95f59" opacity="0.35"/>
<circle cx="201.3" cy="293.6" r="2.4" fill="#d95f59" opacity="0.35"/>
<circle cx="234.9" cy="284.7" r="2.4" fill="#d95f59" opacity="0.35"/>
<circle cx="239.3" cy="285.2" r="2.4" fill="#d95f59" opacity="0.35"/>
<circle cx="187.9" cy="303.1" r="2.4" fill="#d95f59" opacity="0.35"/>
<circle cx="492.6" cy="193.8" r="2.4" fill="#d95f59" opacity="0.35"/>
<circle cx="547.2" cy="186.2" r="2.4" fill="#d95f59" opacity="0.35"/>
<circle cx="234.4" cy="282.8" r="2.4" fill="#d95f59" opacity="0.35"/>
<circle cx="576.1" cy="145.1" r="2.4" fill="#d95f59" opacity="0.35"/>
<circle cx="563.6" cy="163.5" r="2.4" fill="#d95f59" opacity="0.35"/>
<circle cx="183.5" cy="260.8" r="2.4" fill="#d95f59" opacity="0.35"/>
<circle cx="199.8" cy="301.1" r="2.4" fill="#d95f59" opacity="0.35"/>
<circle cx="248.4" cy="290.9" r="2.4" fill="#d95f59" opacity="0.35"/>
<polyline points="330.3,333.9 327.3,332.6 324.3,331.3 321.3,330.1 318.2,328.9 315.2,327.8 312.1,326.8 309.0,325.8 305.9,324.8 302.8,323.9 299.6,323.1 296.4,322.3 293.2,321.6 289.9,320.9 286.6,320.3 283.3,319.7 280.0,319.1 276.6,318.6 273.1,318.2 269.7,317.8 266.2,317.4 262.6,317.1 259.0,316.9 255.4,316.7 251.7,316.5 248.0,316.4 244.2,316.3 240.3,316.3 236.5,316.3 232.5,316.3 228.5,316.4 224.4,316.6 220.3,316.8 216.1,317.0 211.9,317.2 207.6,317.6 203.2,317.9 198.7,318.3 194.2,318.8 189.6,319.3 184.9,319.8 180.2,320.4 175.3,321.0 170.4,321.6 165.4,322.3 160.4,323.1 155.2,323.9 149.9,324.7 144.6,325.6" fill="none" stroke="#2f6f8f" stroke-width="1.8" opacity="0.78"/>
<circle cx="330.3" cy="333.9" r="2.6" fill="#333"/>
<circle cx="144.6" cy="325.6" r="3.2" fill="#2f6f8f"/>
<polyline points="310.4,154.5 310.9,156.7 311.3,158.9 311.7,161.0 312.0,163.1 312.3,165.1 312.6,167.1 312.8,169.0 313.0,170.9 313.2,172.8 313.3,174.6 313.4,176.4 313.5,178.2 313.5,179.9 313.5,181.6 313.5,183.2 313.4,184.9 313.3,186.5 313.2,188.0 313.0,189.6 312.8,191.1 312.5,192.6 312.3,194.0 312.0,195.5 311.6,196.9 311.3,198.3 310.9,199.7 310.4,201.0 310.0,202.3 309.5,203.6 308.9,204.9 308.4,206.2 307.8,207.5 307.2,208.7 306.5,209.9 305.8,211.1 305.1,212.3 304.3,213.5 303.5,214.7 302.7,215.8 301.8,217.0 300.9,218.1 300.0,219.2 299.0,220.3 298.0,221.4 297.0,222.5 295.9,223.6 294.8,224.6 293.6,225.7" fill="none" stroke="#2f6f8f" stroke-width="1.8" opacity="0.78"/>
<circle cx="310.4" cy="154.5" r="2.6" fill="#333"/>
<circle cx="293.6" cy="225.7" r="3.2" fill="#2f6f8f"/>
<polyline points="417.1,120.5 419.8,122.1 422.6,123.6 425.3,125.1 428.1,126.5 430.8,127.9 433.6,129.2 436.4,130.4 439.2,131.6 442.1,132.8 444.9,133.9 447.8,134.9 450.7,135.9 453.6,136.8 456.5,137.7 459.5,138.5 462.5,139.3 465.5,140.0 468.6,140.7 471.7,141.3 474.8,141.9 478.0,142.4 481.2,142.9 484.4,143.3 487.7,143.7 491.0,144.1 494.4,144.4 497.8,144.7 501.3,144.9 504.8,145.0 508.3,145.2 511.9,145.2 515.6,145.3 519.3,145.3 523.1,145.2 526.9,145.1 530.8,145.0 534.7,144.8 538.7,144.6 542.8,144.4 547.0,144.0 551.2,143.7 555.5,143.3 559.8,142.9 564.3,142.4 568.8,141.9 573.4,141.3 578.0,140.7 582.8,140.1" fill="none" stroke="#2f6f8f" stroke-width="1.8" opacity="0.78"/>
<circle cx="417.1" cy="120.5" r="2.6" fill="#333"/>
<circle cx="582.8" cy="140.1" r="3.2" fill="#2f6f8f"/>
<polyline points="367.3,217.9 367.3,218.3 367.2,218.7 367.2,219.1 367.1,219.4 367.1,219.8 367.0,220.1 366.9,220.4 366.9,220.8 366.8,221.1 366.7,221.4 366.6,221.7 366.5,222.1 366.4,222.4 366.3,222.7 366.2,223.0 366.0,223.2 365.9,223.5 365.8,223.8 365.6,224.1 365.5,224.4 365.3,224.6 365.1,224.9 365.0,225.2 364.8,225.4 364.6,225.7 364.4,225.9 364.2,226.2 364.0,226.4 363.8,226.7 363.6,226.9 363.4,227.2 363.2,227.4 363.0,227.6 362.7,227.9 362.5,228.1 362.2,228.3 362.0,228.5 361.7,228.8 361.4,229.0 361.2,229.2 360.9,229.4 360.6,229.6 360.3,229.9 360.0,230.1 359.7,230.3 359.4,230.5 359.0,230.7 358.7,230.9" fill="none" stroke="#2f6f8f" stroke-width="1.8" opacity="0.78"/>
<circle cx="367.3" cy="217.9" r="2.6" fill="#333"/>
<circle cx="358.7" cy="230.9" r="3.2" fill="#2f6f8f"/>
<polyline points="469.2,315.7 468.6,313.1 468.1,310.6 467.6,308.1 467.2,305.7 466.8,303.3 466.4,301.0 466.1,298.7 465.9,296.4 465.7,294.2 465.5,292.0 465.4,289.9 465.3,287.8 465.3,285.8 465.3,283.8 465.4,281.8 465.5,279.9 465.6,278.0 465.8,276.1 466.1,274.3 466.4,272.5 466.7,270.7 467.0,268.9 467.5,267.2 467.9,265.5 468.4,263.9 469.0,262.2 469.5,260.6 470.2,259.0 470.8,257.4 471.6,255.9 472.3,254.3 473.1,252.8 474.0,251.3 474.9,249.8 475.8,248.4 476.8,246.9 477.9,245.5 478.9,244.1 480.1,242.6 481.3,241.3 482.5,239.9 483.8,238.5 485.1,237.1 486.5,235.8 487.9,234.4 489.4,233.1 490.9,231.8 492.5,230.4" fill="none" stroke="#2f6f8f" stroke-width="1.8" opacity="0.78"/>
<circle cx="469.2" cy="315.7" r="2.6" fill="#333"/>
<circle cx="492.5" cy="230.4" r="3.2" fill="#2f6f8f"/>
<polyline points="202.1,111.0 201.8,115.2 201.5,119.4 201.1,123.5 200.6,127.5 200.0,131.5 199.3,135.4 198.6,139.2 197.7,143.0 196.8,146.7 195.7,150.3 194.6,153.9 193.4,157.5 192.1,160.9 190.7,164.4 189.2,167.8 187.6,171.1 186.0,174.4 184.2,177.7 182.4,180.9 180.4,184.1 178.4,187.2 176.3,190.3 174.0,193.4 171.7,196.4 169.3,199.4 166.8,202.4 164.2,205.4 161.5,208.3 158.7,211.2 155.8,214.1 152.8,216.9 149.7,219.8 146.5,222.6 143.2,225.4 139.8,228.2 136.3,231.0 132.6,233.8 128.9,236.5 125.1,239.3 121.1,242.1 117.0,244.8 112.8,247.5 108.5,250.3 104.1,253.0 99.6,255.7 94.9,258.5 90.1,261.2 85.2,263.9" fill="none" stroke="#2f6f8f" stroke-width="1.8" opacity="0.78"/>
<circle cx="202.1" cy="111.0" r="2.6" fill="#333"/>
<circle cx="85.2" cy="263.9" r="3.2" fill="#2f6f8f"/>
<polyline points="307.2,267.3 305.2,267.4 303.3,267.6 301.3,267.8 299.2,268.0 297.2,268.2 295.1,268.5 292.9,268.8 290.8,269.1 288.6,269.4 286.3,269.7 284.0,270.1 281.7,270.4 279.4,270.8 277.0,271.2 274.5,271.7 272.0,272.1 269.5,272.6 266.9,273.0 264.3,273.6 261.7,274.1 258.9,274.6 256.2,275.2 253.4,275.8 250.5,276.4 247.6,277.0 244.6,277.7 241.6,278.3 238.5,279.0 235.4,279.8 232.2,280.5 228.9,281.3 225.6,282.0 222.2,282.8 218.7,283.7 215.2,284.5 211.6,285.4 208.0,286.3 204.3,287.2 200.5,288.2 196.6,289.2 192.7,290.2 188.6,291.2 184.5,292.3 180.4,293.4 176.1,294.5 171.7,295.6 167.3,296.8 162.8,298.0" fill="none" stroke="#2f6f8f" stroke-width="1.8" opacity="0.78"/>
<circle cx="307.2" cy="267.3" r="2.6" fill="#333"/>
<circle cx="162.8" cy="298.0" r="3.2" fill="#2f6f8f"/>
<polyline points="202.9,286.8 199.0,287.8 195.1,288.8 191.0,289.8 186.9,290.9 182.7,292.0 178.5,293.1 174.1,294.3 169.7,295.5 165.1,296.7 160.5,298.0 155.8,299.2 151.0,300.5 146.1,301.9 141.1,303.2 136.0,304.6 130.8,306.1 125.5,307.5 120.1,309.0 114.6,310.6 108.9,312.1 103.2,313.7 97.3,315.4 91.3,317.0 85.2,318.7 79.0,320.5 72.7,322.3 66.2,324.1 59.6,326.0 52.8,327.9 46.0,329.8 38.9,331.8 31.8,333.9 24.5,335.9 17.0,338.1 9.4,340.2 1.7,342.5 -6.3,344.7 -14.4,347.0 -22.6,349.4 -31.0,351.8 -39.6,354.3 -48.4,356.8 -57.3,359.4 -66.4,362.0 -75.7,364.7 -85.2,367.4 -94.9,370.2 -104.8,373.1" fill="none" stroke="#2f6f8f" stroke-width="1.8" opacity="0.78"/>
<circle cx="202.9" cy="286.8" r="2.6" fill="#333"/>
<circle cx="-104.8" cy="373.1" r="3.2" fill="#2f6f8f"/>
<polyline points="229.7,148.8 229.0,152.0 228.4,155.2 227.6,158.3 226.8,161.4 225.8,164.5 224.9,167.5 223.8,170.4 222.7,173.3 221.5,176.2 220.2,179.0 218.8,181.8 217.4,184.5 215.8,187.2 214.3,189.9 212.6,192.5 210.8,195.2 209.0,197.8 207.1,200.3 205.1,202.8 203.1,205.4 200.9,207.8 198.7,210.3 196.4,212.8 194.0,215.2 191.5,217.6 189.0,220.0 186.3,222.4 183.6,224.7 180.8,227.1 177.9,229.4 174.9,231.7 171.8,234.1 168.6,236.4 165.4,238.7 162.0,241.0 158.5,243.3 155.0,245.6 151.3,247.8 147.6,250.1 143.7,252.4 139.8,254.7 135.7,257.0 131.5,259.3 127.3,261.6 122.9,263.9 118.4,266.2 113.8,268.5 109.1,270.9" fill="none" stroke="#2f6f8f" stroke-width="1.8" opacity="0.78"/>
<circle cx="229.7" cy="148.8" r="2.6" fill="#333"/>
<circle cx="109.1" cy="270.9" r="3.2" fill="#2f6f8f"/>
<polyline points="335.0,145.8 336.0,147.8 336.9,149.9 337.9,151.8 338.8,153.8 339.7,155.7 340.6,157.5 341.4,159.3 342.2,161.1 343.0,162.8 343.8,164.4 344.5,166.1 345.3,167.7 346.0,169.2 346.7,170.7 347.4,172.2 348.0,173.7 348.6,175.1 349.3,176.4 349.9,177.8 350.4,179.1 351.0,180.4 351.6,181.6 352.1,182.8 352.6,184.0 353.1,185.2 353.6,186.3 354.1,187.4 354.5,188.5 355.0,189.5 355.4,190.6 355.8,191.6 356.2,192.6 356.6,193.5 357.0,194.4 357.4,195.4 357.7,196.2 358.1,197.1 358.4,198.0 358.7,198.8 359.0,199.6 359.3,200.4 359.6,201.2 359.9,201.9 360.2,202.6 360.4,203.4 360.7,204.1 360.9,204.7 361.2,205.4" fill="none" stroke="#2f6f8f" stroke-width="1.8" opacity="0.78"/>
<circle cx="335.0" cy="145.8" r="2.6" fill="#333"/>
<circle cx="361.2" cy="205.4" r="3.2" fill="#2f6f8f"/>
<polyline points="519.8,286.1 520.6,283.5 521.5,280.9 522.4,278.4 523.4,275.8 524.5,273.3 525.6,270.9 526.8,268.5 528.1,266.1 529.4,263.7 530.8,261.4 532.3,259.1 533.8,256.8 535.5,254.5 537.2,252.3 538.9,250.1 540.8,247.9 542.7,245.7 544.7,243.6 546.8,241.4 548.9,239.3 551.1,237.2 553.4,235.1 555.8,233.0 558.3,230.9 560.8,228.8 563.4,226.8 566.2,224.7 569.0,222.7 571.8,220.6 574.8,218.6 577.8,216.6 581.0,214.5 584.2,212.5 587.5,210.5 591.0,208.4 594.5,206.4 598.1,204.3 601.8,202.3 605.6,200.2 609.5,198.2 613.5,196.1 617.6,194.1 621.8,192.0 626.1,189.9 630.6,187.8 635.1,185.7 639.8,183.5 644.5,181.4" fill="none" stroke="#2f6f8f" stroke-width="1.8" opacity="0.78"/>
<circle cx="519.8" cy="286.1" r="2.6" fill="#333"/>
<circle cx="644.5" cy="181.4" r="3.2" fill="#2f6f8f"/>
<polyline points="461.4,334.6 460.4,331.7 459.3,328.9 458.3,326.2 457.4,323.5 456.5,320.9 455.6,318.4 454.8,315.9 454.1,313.5 453.3,311.1 452.6,308.7 452.0,306.5 451.4,304.2 450.8,302.0 450.3,299.9 449.8,297.8 449.3,295.8 448.9,293.7 448.5,291.8 448.2,289.9 447.9,288.0 447.6,286.1 447.4,284.3 447.2,282.5 447.0,280.8 446.9,279.1 446.8,277.4 446.7,275.7 446.7,274.1 446.7,272.5 446.8,271.0 446.9,269.5 447.0,268.0 447.1,266.5 447.3,265.0 447.5,263.6 447.8,262.2 448.1,260.8 448.4,259.4 448.8,258.1 449.2,256.8 449.6,255.5 450.1,254.2 450.6,252.9 451.2,251.7 451.7,250.4 452.3,249.2 453.0,248.0 453.7,246.8" fill="none" stroke="#2f6f8f" stroke-width="1.8" opacity="0.78"/>
<circle cx="461.4" cy="334.6" r="2.6" fill="#333"/>
<circle cx="453.7" cy="246.8" r="3.2" fill="#2f6f8f"/>
<polyline points="493.1,154.9 496.2,155.0 499.3,155.1 502.6,155.1 505.8,155.1 509.1,155.0 512.5,154.9 515.9,154.8 519.4,154.6 522.9,154.4 526.5,154.2 530.2,153.9 533.9,153.6 537.7,153.2 541.5,152.8 545.4,152.4 549.4,151.9 553.4,151.4 557.5,150.9 561.7,150.3 566.0,149.7 570.3,149.0 574.7,148.3 579.2,147.6 583.8,146.8 588.5,146.0 593.2,145.1 598.1,144.3 603.0,143.3 608.0,142.3 613.2,141.3 618.4,140.3 623.7,139.2 629.1,138.1 634.7,136.9 640.3,135.7 646.1,134.4 651.9,133.1 657.9,131.7 664.0,130.3 670.2,128.9 676.5,127.4 683.0,125.9 689.6,124.3 696.3,122.7 703.2,121.0 710.2,119.3 717.3,117.5 724.6,115.7" fill="none" stroke="#2f6f8f" stroke-width="1.8" opacity="0.78"/>
<circle cx="493.1" cy="154.9" r="2.6" fill="#333"/>
<circle cx="724.6" cy="115.7" r="3.2" fill="#2f6f8f"/>
<polyline points="487.3,315.9 487.0,313.1 486.8,310.3 486.6,307.6 486.4,305.0 486.3,302.4 486.3,299.8 486.3,297.3 486.4,294.9 486.5,292.5 486.7,290.1 486.9,287.8 487.2,285.5 487.6,283.2 488.0,281.0 488.4,278.8 488.9,276.7 489.5,274.6 490.1,272.5 490.8,270.4 491.5,268.4 492.3,266.4 493.1,264.5 494.0,262.5 494.9,260.6 495.9,258.7 497.0,256.9 498.1,255.0 499.3,253.2 500.5,251.4 501.8,249.6 503.1,247.8 504.5,246.1 505.9,244.3 507.5,242.6 509.0,240.9 510.7,239.2 512.4,237.5 514.1,235.9 515.9,234.2 517.8,232.6 519.8,230.9 521.8,229.3 523.8,227.6 526.0,226.0 528.2,224.4 530.5,222.8 532.8,221.2 535.2,219.6" fill="none" stroke="#2f6f8f" stroke-width="1.8" opacity="0.78"/>
<circle cx="487.3" cy="315.9" r="2.6" fill="#333"/>
<circle cx="535.2" cy="219.6" r="3.2" fill="#2f6f8f"/>
<polyline points="232.7,154.8 232.0,157.9 231.3,160.9 230.4,163.9 229.5,166.9 228.5,169.8 227.5,172.6 226.3,175.4 225.1,178.2 223.9,181.0 222.5,183.7 221.1,186.3 219.6,189.0 218.0,191.6 216.4,194.1 214.6,196.7 212.8,199.2 210.9,201.7 209.0,204.2 207.0,206.6 204.8,209.0 202.6,211.4 200.4,213.8 198.0,216.2 195.6,218.5 193.1,220.8 190.5,223.2 187.8,225.5 185.0,227.7 182.1,230.0 179.2,232.3 176.2,234.5 173.0,236.8 169.8,239.0 166.5,241.3 163.1,243.5 159.6,245.8 156.0,248.0 152.3,250.2 148.5,252.5 144.7,254.7 140.7,256.9 136.6,259.2 132.4,261.4 128.1,263.7 123.7,265.9 119.1,268.2 114.5,270.5 109.8,272.8" fill="none" stroke="#2f6f8f" stroke-width="1.8" opacity="0.78"/>
<circle cx="232.7" cy="154.8" r="2.6" fill="#333"/>
<circle cx="109.8" cy="272.8" r="3.2" fill="#2f6f8f"/>
<polyline points="378.4,351.6 375.8,349.4 373.1,347.3 370.5,345.2 367.8,343.2 365.2,341.3 362.6,339.4 360.0,337.6 357.4,335.8 354.8,334.1 352.1,332.5 349.5,331.0 346.9,329.4 344.3,328.0 341.6,326.6 339.0,325.3 336.3,324.0 333.7,322.8 331.0,321.6 328.3,320.5 325.6,319.4 322.9,318.4 320.1,317.4 317.4,316.5 314.6,315.6 311.8,314.7 309.0,314.0 306.2,313.2 303.3,312.5 300.4,311.9 297.5,311.3 294.6,310.7 291.6,310.2 288.6,309.7 285.6,309.3 282.5,308.9 279.4,308.6 276.2,308.3 273.1,308.0 269.8,307.8 266.6,307.6 263.3,307.5 259.9,307.4 256.6,307.3 253.1,307.3 249.6,307.3 246.1,307.4 242.5,307.5 238.9,307.6" fill="none" stroke="#2f6f8f" stroke-width="1.8" opacity="0.78"/>
<circle cx="378.4" cy="351.6" r="2.6" fill="#333"/>
<circle cx="238.9" cy="307.6" r="3.2" fill="#2f6f8f"/>
<text x="40" y="436" font-family="Arial, sans-serif" font-size="13" fill="#444">black: source noise, blue: integrated samples, red: target data cloud</text>
</svg>
